<svg width="40" height="40" viewBox="0 0 40 40" fill="none" xmlns="http://www.w3.org/2000/svg">
<path d="M19.168 0.751997C19.4144 0.587751 19.7039 0.500107 20 0.500107C20.2961 0.500107 20.5856 0.587751 20.832 0.751997L38.832 12.752C38.9983 12.8602 39.1414 13.0003 39.2531 13.1642C39.3649 13.3281 39.443 13.5126 39.483 13.7069C39.5229 13.9012 39.524 14.1015 39.486 14.2962C39.448 14.4909 39.3718 14.6761 39.2618 14.8412C39.1518 15.0062 39.0101 15.1478 38.845 15.2578C38.6798 15.3677 38.4945 15.4438 38.2998 15.4816C38.1051 15.5194 37.9048 15.5183 37.7105 15.4782C37.5162 15.4381 37.3318 15.3598 37.168 15.248L20 3.802L2.832 15.248C2.50098 15.4635 2.09833 15.5397 1.71147 15.4601C1.3246 15.3805 0.984737 15.1515 0.765648 14.8229C0.546559 14.4943 0.465928 14.0925 0.541258 13.7048C0.616587 13.317 0.841797 12.9747 1.168 12.752L19.168 0.751997Z" fill="#FF9800"/>
<path fill-rule="evenodd" clip-rule="evenodd" d="M36.5 16.664V36.5H38C38.3978 36.5 38.7794 36.658 39.0607 36.9393C39.342 37.2206 39.5 37.6022 39.5 38C39.5 38.3978 39.342 38.7794 39.0607 39.0607C38.7794 39.342 38.3978 39.5 38 39.5H2C1.60218 39.5 1.22064 39.342 0.93934 39.0607C0.658035 38.7794 0.5 38.3978 0.5 38C0.5 37.6022 0.658035 37.2206 0.93934 36.9393C1.22064 36.658 1.60218 36.5 2 36.5H3.5V16.664C3.50046 16.3067 3.62844 15.9613 3.8609 15.69C4.09335 15.4187 4.41502 15.2393 4.768 15.184C9.80689 14.3944 14.8996 13.9986 20 14C25.18 14 30.268 14.404 35.232 15.184C35.585 15.2393 35.9066 15.4187 36.1391 15.69C36.3716 15.9613 36.4995 16.3067 36.5 16.664ZM21.5 21.5C21.5 21.1022 21.342 20.7206 21.0607 20.4393C20.7794 20.158 20.3978 20 20 20C19.6022 20 19.2206 20.158 18.9393 20.4393C18.658 20.7206 18.5 21.1022 18.5 21.5V35C18.5 35.3978 18.658 35.7794 18.9393 36.0607C19.2206 36.342 19.6022 36.5 20 36.5C20.3978 36.5 20.7794 36.342 21.0607 36.0607C21.342 35.7794 21.5 35.3978 21.5 35V21.5ZM27.5 20C27.8978 20 28.2794 20.158 28.5607 20.4393C28.842 20.7206 29 21.1022 29 21.5V35C29 35.3978 28.842 35.7794 28.5607 36.0607C28.2794 36.342 27.8978 36.5 27.5 36.5C27.1022 36.5 26.7206 36.342 26.4393 36.0607C26.158 35.7794 26 35.3978 26 35V21.5C26 21.1022 26.158 20.7206 26.4393 20.4393C26.7206 20.158 27.1022 20 27.5 20ZM14 21.5C14 21.1022 13.842 20.7206 13.5607 20.4393C13.2794 20.158 12.8978 20 12.5 20C12.1022 20 11.7206 20.158 11.4393 20.4393C11.158 20.7206 11 21.1022 11 21.5V35C11 35.3978 11.158 35.7794 11.4393 36.0607C11.7206 36.342 12.1022 36.5 12.5 36.5C12.8978 36.5 13.2794 36.342 13.5607 36.0607C13.842 35.7794 14 35.3978 14 35V21.5Z" fill="#FF9800"/>
<path d="M20 11.75C20.5967 11.75 21.169 11.5129 21.591 11.091C22.0129 10.669 22.25 10.0967 22.25 9.5C22.25 8.90326 22.0129 8.33097 21.591 7.90901C21.169 7.48705 20.5967 7.25 20 7.25C19.4033 7.25 18.831 7.48705 18.409 7.90901C17.9871 8.33097 17.75 8.90326 17.75 9.5C17.75 10.0967 17.9871 10.669 18.409 11.091C18.831 11.5129 19.4033 11.75 20 11.75Z" fill="#FF9800"/>
</svg>
