<svg width="41" height="39" viewBox="0 0 41 39" fill="none" xmlns="http://www.w3.org/2000/svg">
<path d="M28 8C30.2091 8 32 6.20914 32 4C32 1.79086 30.2091 0 28 0C25.7909 0 24 1.79086 24 4C24 6.20914 25.7909 8 28 8Z" fill="#FF9800"/>
<path d="M25.554 17.9381C26.0131 18.6222 26.6717 19.1485 27.4402 19.4455C28.2088 19.7425 29.0501 19.7957 29.85 19.5981L36.482 17.9401L35.516 14.0601L28.884 15.7181L26.126 11.5841C25.5367 10.7012 24.6222 10.0872 23.582 9.87606L15.89 8.33606C15.0295 8.16336 14.136 8.27877 13.3477 8.66447C12.5593 9.05017 11.9198 9.68469 11.528 10.4701L8.212 17.1021L11.79 18.8921L15.106 12.2581L19.04 13.0461L8.868 30.0001H0V34.0001H8.868C10.264 34.0001 11.578 33.2561 12.298 32.0581L16.134 25.6661L26.472 27.7341L30.104 38.6321L33.896 37.3661L30.266 26.4701C30.042 25.8011 29.6456 25.203 29.1168 24.736C28.588 24.269 27.9455 23.9496 27.254 23.8101L21.176 22.5961L24.72 16.6881L25.554 17.9381Z" fill="#FF9800"/>
<path d="M32 12.5176L33.9319 12L40.1435 35.1822L38.2117 35.6999L32 12.5176Z" fill="#FF9800"/>
</svg>
