<svg width="21" height="20" viewBox="0 0 21 20" fill="none" xmlns="http://www.w3.org/2000/svg">
<path d="M9.63641 1.34882C9.67871 1.24566 9.75074 1.1574 9.84333 1.09528C9.93593 1.03317 10.0449 1 10.1564 1C10.2679 1 10.3769 1.03317 10.4695 1.09528C10.5621 1.1574 10.6341 1.24566 10.6764 1.34882L12.8014 6.45982C12.8412 6.55546 12.9066 6.63827 12.9904 6.69914C13.0742 6.76001 13.1732 6.79658 13.2764 6.80482L18.7944 7.24682C19.2934 7.28682 19.4954 7.90982 19.1154 8.23482L14.9114 11.8368C14.8329 11.904 14.7743 11.9915 14.7422 12.0898C14.7101 12.188 14.7057 12.2932 14.7294 12.3938L16.0144 17.7788C16.0402 17.8869 16.0335 18.0001 15.995 18.1043C15.9565 18.2085 15.8879 18.299 15.798 18.3642C15.7082 18.4295 15.601 18.4667 15.49 18.4711C15.379 18.4754 15.2692 18.4468 15.1744 18.3888L10.4494 15.5038C10.3612 15.4499 10.2598 15.4214 10.1564 15.4214C10.053 15.4214 9.95164 15.4499 9.86341 15.5038L5.13841 18.3898C5.04367 18.4478 4.93387 18.4764 4.82287 18.4721C4.71187 18.4677 4.60466 18.4305 4.51478 18.3652C4.4249 18.3 4.35638 18.2095 4.31787 18.1053C4.27936 18.0011 4.27259 17.8879 4.29841 17.7798L5.58341 12.3938C5.60725 12.2932 5.60286 12.188 5.57075 12.0897C5.53864 11.9915 5.48005 11.9039 5.40141 11.8368L1.19741 8.23482C1.11276 8.16266 1.05142 8.06699 1.02117 7.95994C0.990927 7.85289 0.993129 7.73927 1.0275 7.63347C1.06188 7.52768 1.12687 7.43446 1.21427 7.36563C1.30166 7.2968 1.40751 7.25545 1.51841 7.24682L7.03641 6.80482C7.13966 6.79658 7.23864 6.76001 7.32244 6.69914C7.40625 6.63827 7.47164 6.55546 7.51141 6.45982L9.63641 1.34882Z" stroke="#FFDD00" stroke-width="1.5" stroke-linecap="round" stroke-linejoin="round"/>
</svg>
