<svg width="109" height="54" viewBox="0 0 109 54" fill="none" xmlns="http://www.w3.org/2000/svg">
<g clip-path="url(#clip0_3001_2637)">
<path fill-rule="evenodd" clip-rule="evenodd" d="M106.289 54H2.73029C1.23055 54 0 52.8 0 51.2952V2.70476C0 1.2 1.21132 0 2.73029 0H106.289C107.789 0 109.019 1.2 109.019 2.70476V51.2952C109 52.781 107.789 54 106.289 54Z" fill="#020416"/>
<path d="M105.078 52.2857H3.80697C2.59565 52.2857 1.63428 51.3143 1.63428 50.1333V3.77143C1.63428 2.57143 2.61487 1.61905 3.80697 1.61905H105.058C106.27 1.61905 107.231 2.59048 107.231 3.77143V50.1143C107.25 51.3143 106.27 52.2857 105.078 52.2857Z" fill="#FFDD00"/>
<path d="M5.44128 50.5143C4.49914 50.5143 3.74927 49.7524 3.74927 48.8381V5.40953C3.74927 4.47619 4.51836 3.73334 5.44128 3.73334H103.539C104.481 3.73334 105.231 4.49524 105.231 5.40953V48.8381C105.231 49.7714 104.462 50.5143 103.539 50.5143H5.44128Z" fill="#FFDD00"/>
<path d="M103.559 4.19048C104.231 4.19048 104.77 4.72381 104.77 5.39048V48.8191C104.77 49.4857 104.231 50.0191 103.559 50.0191H5.44125C4.76829 50.0191 4.22992 49.4857 4.22992 48.8191V5.39048C4.22992 4.72381 4.76829 4.19048 5.44125 4.19048H103.559ZM103.559 3.2381H5.44125C4.24915 3.2381 3.26855 4.20953 3.26855 5.39048V48.8191C3.26855 50.0191 4.24915 50.9714 5.44125 50.9714H103.539C104.751 50.9714 105.712 50 105.712 48.8191V5.39048C105.731 4.20953 104.751 3.2381 103.559 3.2381Z" fill="#020416"/>
<path d="M8.74854 7.40953H18.3622C24.0343 7.40953 27.6875 10.3048 27.6875 15.2952C27.6875 20.5333 23.6113 23.2952 18.0354 23.2952H14.959V29.6381H8.74854V7.40953ZM17.92 18.4571C20.1311 18.4571 21.4771 17.3143 21.4771 15.5048C21.4771 13.6 20.1311 12.5905 17.8815 12.5905H14.9782V18.4571H17.92Z" fill="#020416"/>
<path d="M47.2033 29.6381H30.5332V7.40953H36.7436V24.2476H44.4154V7.40953H50.6258V24.2476H53.1638L52.4524 34.0952H47.2033V29.6381Z" fill="#020416"/>
<path d="M56.3748 7.40953H74.4293V12.6476H62.6044V15.2191H66.9306C72.122 15.2191 75.9482 17.5619 75.9482 22.3619C75.9482 26.9714 72.545 29.6381 67.2574 29.6381H56.394V7.40953H56.3748ZM66.7575 24.4571C68.6226 24.4571 69.6993 23.6381 69.6993 22.1143C69.6993 20.7429 68.6034 19.8667 66.7768 19.8667H62.5852V24.4762H66.7575V24.4571Z" fill="#020416"/>
<path d="M79.6783 28.4571L82.1202 24.0191C82.9855 24.5905 83.9853 24.781 84.6582 24.781C85.1966 24.781 85.9465 24.5905 86.6194 23.8286L77.8325 7.40953H84.7544L89.8496 17.8667L94.6565 7.40953H101.425L92.6761 24.3619C90.6187 28.3238 88.5422 29.9429 85.0812 29.9429C82.9085 29.9619 81.1781 29.3524 79.6783 28.4571Z" fill="#020416"/>
<path d="M8.74854 36.8572H10.0368V39.0857C10.6713 37.6572 11.9211 36.6286 13.5554 36.7048V38.0762H13.4592C11.575 38.0762 10.0368 39.4095 10.0368 42V45.4095H8.74854V36.8572Z" fill="#020416"/>
<path d="M14.6128 41.1619C14.6128 38.7429 16.5163 36.6857 19.0351 36.6857C20.6694 36.6857 21.6885 37.3714 22.496 38.2095L21.6692 39.0667C20.9771 38.3619 20.1887 37.8095 19.0159 37.8095C17.2662 37.8095 15.9203 39.2762 15.9203 41.1619C15.9203 43.0095 17.2854 44.4953 19.0928 44.4953C20.1887 44.4953 21.0155 43.9238 21.7077 43.2L22.5537 43.981C21.6885 44.9333 20.6502 45.6381 19.0351 45.6381C16.5355 45.6191 14.6128 43.581 14.6128 41.1619Z" fill="#020416"/>
<path d="M25.9955 43.7905V45.4286H24.7073V33.3333H25.9955V38.5905C26.7069 37.5619 27.726 36.6857 29.3026 36.6857C31.3792 36.6857 33.4365 38.3048 33.4365 41.1619C33.4365 43.9619 31.3984 45.6191 29.3026 45.6191C27.6875 45.6191 26.6492 44.7429 25.9955 43.7905ZM32.1098 41.1429C32.1098 39.1238 30.7062 37.8286 29.0719 37.8286C27.476 37.8286 25.9378 39.1619 25.9378 41.1619C25.9378 43.1429 27.4568 44.4762 29.0719 44.4762C30.7447 44.4762 32.1098 43.2381 32.1098 41.1429Z" fill="#020416"/>
<path d="M35.6667 42.1905V36.8762H36.955V41.8857C36.955 43.4667 37.8202 44.4762 39.3392 44.4762C40.8197 44.4762 41.9349 43.3905 41.9349 41.7905V36.8953H43.2039V45.4667H41.9349V43.981C41.3581 44.9143 40.4544 45.6572 38.9739 45.6572C36.8973 45.6191 35.6667 44.2286 35.6667 42.1905Z" fill="#020416"/>
<path d="M45.9536 43.6952H47.4918V45.4286H45.9536V43.6952Z" fill="#020416"/>
<path d="M49.3376 41.1619C49.3376 38.7429 51.2412 36.6857 53.8561 36.6857C56.4518 36.6857 58.3553 38.7048 58.3553 41.1619C58.3553 43.581 56.4325 45.6381 53.8176 45.6381C51.2219 45.6191 49.3376 43.6 49.3376 41.1619ZM57.0286 41.1619C57.0286 39.3143 55.6442 37.8095 53.8176 37.8095C51.9526 37.8095 50.6643 39.3143 50.6643 41.1619C50.6643 43.0095 52.0295 44.4953 53.8561 44.4953C55.7211 44.4762 57.0286 42.9905 57.0286 41.1619Z" fill="#020416"/>
<path d="M60.6624 36.8572H61.9506V39.0857C62.5851 37.6572 63.8349 36.6286 65.4692 36.7048V38.0762H65.3731C63.4888 38.0762 61.9506 39.4095 61.9506 42V45.4095H60.6624V36.8572Z" fill="#020416"/>
<path d="M66.9882 46.9143L67.565 45.9238C68.5456 46.6286 69.6608 47.0095 70.8913 47.0095C72.7949 47.0095 74.0254 45.9619 74.0254 43.9619V42.9524C73.2755 43.9429 72.218 44.7619 70.6222 44.7619C68.5456 44.7619 66.5652 43.2191 66.5652 40.7238C66.5652 38.2286 68.5648 36.6857 70.6222 36.6857C72.2373 36.6857 73.2948 37.4857 74.0062 38.4V36.8572H75.2944V43.9238C75.2944 45.2572 74.8906 46.2667 74.1985 46.9524C73.4294 47.7143 72.2757 48.0953 70.9106 48.0953C69.4685 48.1143 68.1418 47.7143 66.9882 46.9143ZM74.0831 40.7048C74.0831 38.9524 72.5449 37.8095 70.9106 37.8095C69.2762 37.8095 67.9111 38.9333 67.9111 40.7238C67.9111 42.4381 69.2955 43.6381 70.9106 43.6381C72.5449 43.6381 74.0831 42.4572 74.0831 40.7048Z" fill="#020416"/>
<path d="M78.0439 43.6952H79.5821V45.4286H78.0439V43.6952Z" fill="#020416"/>
<path d="M82.1394 42.1905V36.8762H83.4276V41.8857C83.4276 43.4667 84.2929 44.4762 85.8118 44.4762C87.2923 44.4762 88.4075 43.3905 88.4075 41.7905V36.8953H89.6765V45.4667H88.4075V43.981C87.8307 44.9143 86.927 45.6572 85.4465 45.6572C83.37 45.6191 82.1394 44.2286 82.1394 42.1905Z" fill="#020416"/>
<path d="M91.9263 42.9143C91.9263 41.0667 93.426 40.1143 95.6179 40.1143C96.7139 40.1143 97.483 40.2667 98.2521 40.4762V40.2095C98.2521 38.6857 97.3099 37.8857 95.6948 37.8857C94.6758 37.8857 93.8682 38.1333 93.0607 38.4952L92.6761 37.4476C93.6375 37.0095 94.5412 36.7238 95.8102 36.7238C97.0215 36.7238 97.9829 37.0476 98.5982 37.6762C99.1942 38.2667 99.5019 39.1048 99.5019 40.1905V45.4286H98.2328V44.1524C97.6368 44.9143 96.637 45.6191 95.118 45.6191C93.5414 45.6191 91.9263 44.7048 91.9263 42.9143ZM98.2905 42.2857V41.4857C97.656 41.2952 96.81 41.1238 95.7717 41.1238C94.1759 41.1238 93.253 41.8286 93.253 42.8762C93.253 43.9619 94.2528 44.5905 95.4256 44.5905C97.0023 44.5905 98.2905 43.6381 98.2905 42.2857Z" fill="#020416"/>
</g>
<defs>
<clipPath id="clip0_3001_2637">
<rect width="109" height="54" fill="white"/>
</clipPath>
</defs>
</svg>
