<svg width="52" height="52" viewBox="0 0 52 52" fill="none" xmlns="http://www.w3.org/2000/svg">
<path d="M42.6711 4.47198H9.33219C6.64794 4.47198 4.47192 6.648 4.47192 9.33225V42.6712C4.47192 45.3554 6.64794 47.5314 9.33219 47.5314H42.6711C45.3554 47.5314 47.5314 45.3554 47.5314 42.6712V9.33225C47.5314 6.648 45.3554 4.47198 42.6711 4.47198Z" fill="white" fill-opacity="0.05"/>
<path fill-rule="evenodd" clip-rule="evenodd" d="M25.9999 6.73224C36.6426 6.73224 45.2711 15.3573 45.2711 26C45.2711 36.6426 36.6426 45.2712 25.9999 45.2712C15.3572 45.2712 6.73218 36.6426 6.73218 26C6.73218 15.3573 15.3572 6.73224 25.9999 6.73224Z" fill="#FEFEFE" fill-opacity="0.2"/>
<path d="M18.3941 21.2402H20.8173V30.7354H18.3941V29.4528H14.0573L16.4909 27.1301H18.3941V24.6133L11.6619 30.9538V27.605L18.3941 21.2402Z" fill="#FEFEFE" fill-opacity="0.6"/>
<path d="M23.4694 23.7398H21.4795V21.2542H30.1704L27.5566 23.7398H26.0798V30.7459H23.4694V23.7398Z" fill="#FEFEFE" fill-opacity="0.6"/>
<path d="M30.777 23.5387H35.6303L38.0362 21.2542H30.777L28.3677 23.5387V30.7459H33.8935C34.2402 30.7424 34.5661 30.6592 34.8677 30.4998C35.1727 30.3368 35.4397 30.1184 35.6685 29.8376C35.9007 29.5603 36.081 29.2448 36.2127 28.8912C36.341 28.5342 36.4103 28.1598 36.4103 27.7715C36.4103 27.3312 36.3445 26.9291 36.2127 26.572C36.0845 26.215 35.9042 25.9099 35.6754 25.6568C35.4431 25.4003 35.1762 25.2027 34.8677 25.0675C34.5626 24.9288 34.2367 24.8595 33.8797 24.8595H31.3005V27.1406H33.4047C33.5954 27.144 33.741 27.2064 33.845 27.3243C33.949 27.4422 34.0045 27.5982 34.0045 27.7958C34.0045 27.924 33.9802 28.0384 33.9317 28.139C33.8866 28.2395 33.8173 28.3158 33.7271 28.3747C33.637 28.4336 33.5295 28.4614 33.4047 28.4614H30.777V23.5387Z" fill="#FEFEFE" fill-opacity="0.6"/>
<path fill-rule="evenodd" clip-rule="evenodd" d="M38.4869 14.3971L36.7397 19.3163C33.2453 14.3555 26.7384 15.7664 18.6646 20.5088C24.2528 14.8339 30.7251 12.3101 38.4869 14.3971Z" fill="white" fill-opacity="0.1"/>
<path fill-rule="evenodd" clip-rule="evenodd" d="M13.5132 37.6029L15.2604 32.6837C18.7548 37.6445 25.2617 36.2336 33.3356 31.4912C27.7473 37.1661 21.275 39.6899 13.5132 37.6029Z" fill="white" fill-opacity="0.1"/>
<path fill-rule="evenodd" clip-rule="evenodd" d="M37.0794 12.9445C24.6895 1.25492 2.8946 15.0835 10.1815 32.3891C10.6391 19.4757 27.033 10.4104 37.0794 12.9445Z" fill="white" fill-opacity="0.1"/>
<path fill-rule="evenodd" clip-rule="evenodd" d="M14.9204 39.0555C27.3103 50.7451 49.1052 36.9166 41.8183 19.611C41.3607 32.5243 24.9668 41.5896 14.9204 39.0555Z" fill="white" fill-opacity="0.1"/>
<path fill-rule="evenodd" clip-rule="evenodd" d="M8.92667 3.13733H43.0733C46.2592 3.13733 48.8627 5.7408 48.8627 8.92667V43.0733C48.8627 46.2592 46.2592 48.8627 43.0733 48.8627H8.92667C5.7408 48.8627 3.13733 46.2592 3.13733 43.0733V8.92667C3.13733 5.7408 5.7408 3.13733 8.92667 3.13733ZM8.7672 2.60693H43.2328C46.6197 2.60693 49.3931 5.38027 49.3931 8.7672V43.2328C49.3931 46.6197 46.6197 49.3931 43.2328 49.3931H8.7672C5.38027 49.3931 2.60693 46.6197 2.60693 43.2328V8.7672C2.60693 5.38027 5.38027 2.60693 8.7672 2.60693Z" fill="white" fill-opacity="0.05"/>
</svg>
