<svg width="52" height="52" viewBox="0 0 52 52" fill="none" xmlns="http://www.w3.org/2000/svg">
<path d="M42.6711 4.47217H9.33219C6.64794 4.47217 4.47192 6.64818 4.47192 9.33243V42.6714C4.47192 45.3556 6.64794 47.5316 9.33219 47.5316H42.6711C45.3554 47.5316 47.5314 45.3556 47.5314 42.6714V9.33243C47.5314 6.64818 45.3554 4.47217 42.6711 4.47217Z" fill="#256BB1" fill-opacity="0.9"/>
<path fill-rule="evenodd" clip-rule="evenodd" d="M25.9999 6.73242C36.6426 6.73242 45.2711 15.3575 45.2711 26.0002C45.2711 36.6428 36.6426 45.2714 25.9999 45.2714C15.3572 45.2714 6.73218 36.6428 6.73218 26.0002C6.73218 15.3575 15.3572 6.73242 25.9999 6.73242Z" fill="white" fill-opacity="0.9"/>
<path d="M18.3941 21.2402H20.8173V30.7354H18.3941V29.4528H14.0573L16.4909 27.1301H18.3941V24.6133L11.6619 30.9538V27.605L18.3941 21.2402Z" fill="#C32328"/>
<path d="M23.4694 23.7395H21.4795V21.2539H30.1704L27.5566 23.7395H26.0798V30.7456H23.4694V23.7395Z" fill="#C32328"/>
<path d="M30.777 23.5384H35.6303L38.0362 21.2539H30.777L28.3677 23.5384V30.7456H33.8935C34.2402 30.7422 34.5661 30.659 34.8677 30.4995C35.1727 30.3366 35.4397 30.1182 35.6685 29.8374C35.9007 29.56 36.081 29.2446 36.2127 28.891C36.341 28.5339 36.4103 28.1595 36.4103 27.7712C36.4103 27.331 36.3445 26.9288 36.2127 26.5718C36.0845 26.2147 35.9042 25.9096 35.6754 25.6566C35.4431 25.4 35.1762 25.2024 34.8677 25.0672C34.5626 24.9286 34.2367 24.8592 33.8797 24.8592H31.3005V27.1403H33.4047C33.5954 27.1438 33.741 27.2062 33.845 27.324C33.949 27.4419 34.0045 27.5979 34.0045 27.7955C34.0045 27.9238 33.9802 28.0382 33.9317 28.1387C33.8866 28.2392 33.8173 28.3155 33.7271 28.3744C33.637 28.4334 33.5295 28.4611 33.4047 28.4611H30.777V23.5384Z" fill="#C32328"/>
<path fill-rule="evenodd" clip-rule="evenodd" d="M38.4869 14.3973L36.7397 19.3165C33.2453 14.3557 26.7384 15.7666 18.6646 20.509C24.2528 14.8341 30.7251 12.3103 38.4869 14.3973Z" fill="#256BB1" fill-opacity="0.9"/>
<path fill-rule="evenodd" clip-rule="evenodd" d="M13.5132 37.6029L15.2604 32.6837C18.7548 37.6445 25.2617 36.2336 33.3356 31.4912C27.7473 37.1661 21.275 39.6899 13.5132 37.6029Z" fill="#256BB1" fill-opacity="0.9"/>
<path fill-rule="evenodd" clip-rule="evenodd" d="M37.0794 12.9448C24.6895 1.25517 2.8946 15.0837 10.1815 32.3893C10.6391 19.476 27.033 10.4106 37.0794 12.9448Z" fill="#256BB1" fill-opacity="0.9"/>
<path fill-rule="evenodd" clip-rule="evenodd" d="M14.9204 39.0554C27.3103 50.745 49.1052 36.9164 41.8183 19.6108C41.3607 32.5242 24.9668 41.5895 14.9204 39.0554Z" fill="#256BB1" fill-opacity="0.9"/>
<path fill-rule="evenodd" clip-rule="evenodd" d="M8.92667 3.13733H43.0733C46.2592 3.13733 48.8627 5.7408 48.8627 8.92667V43.0733C48.8627 46.2592 46.2592 48.8627 43.0733 48.8627H8.92667C5.7408 48.8627 3.13733 46.2592 3.13733 43.0733V8.92667C3.13733 5.7408 5.7408 3.13733 8.92667 3.13733ZM8.7672 2.60693H43.2328C46.6197 2.60693 49.3931 5.38027 49.3931 8.7672V43.2328C49.3931 46.6197 46.6197 49.3931 43.2328 49.3931H8.7672C5.38027 49.3931 2.60693 46.6197 2.60693 43.2328V8.7672C2.60693 5.38027 5.38027 2.60693 8.7672 2.60693Z" fill="#256BB1" fill-opacity="0.9"/>
</svg>
