<svg width="110" height="38" viewBox="0 0 110 38" fill="none" xmlns="http://www.w3.org/2000/svg">
<g clip-path="url(#clip0_583_8027)">
<path d="M27.2059 13.4668L31.1889 23.0121H32.5275V26.9292H30.3052V24.8437H22.1932V26.9292H19.9714V23.0121H21.2989L25.0326 13.4668H27.2059ZM23.5797 23.0121H28.9L26.1271 16.0085L23.5797 23.0121Z" fill="#020416" fill-opacity="0.8"/>
<path d="M38.6838 13.3213C39.8913 13.3213 40.9789 13.5631 41.9465 14.0496C42.9116 14.5349 43.6817 15.2365 44.256 16.1508C44.8293 17.0657 45.116 18.0697 45.116 19.1597C45.116 20.2237 44.8367 21.2119 44.2763 22.1207C43.7172 23.0295 42.9477 23.7366 41.9713 24.2377C40.9932 24.74 39.8913 24.9914 38.667 24.9914C37.4583 24.9914 36.3602 24.7357 35.3708 24.225C34.3833 23.7148 33.6133 23.0132 33.0614 22.1207C32.5102 21.2276 32.2349 20.2406 32.2349 19.1597C32.2349 18.1169 32.5102 17.1378 33.0614 16.2211C33.6133 15.3019 34.3727 14.5894 35.3428 14.0823C36.3111 13.5745 37.4247 13.3213 38.6838 13.3213ZM34.5653 19.1597C34.5653 19.9146 34.7419 20.5932 35.0917 21.1955C35.4429 21.7984 35.9301 22.2649 36.5578 22.5963C37.1848 22.9278 37.8933 23.0938 38.6844 23.0938C39.8814 23.0938 40.8658 22.7278 41.6382 21.9928C42.4095 21.2616 42.7948 20.3163 42.7948 19.1597C42.7948 18.4048 42.6202 17.7261 42.2728 17.1196C41.9229 16.515 41.4344 16.046 40.8024 15.714C40.1703 15.3825 39.4581 15.2177 38.6677 15.2177C37.8778 15.2177 37.1649 15.3849 36.5335 15.7182C35.9009 16.0521 35.4149 16.5192 35.0768 17.1196C34.7363 17.7201 34.5653 18.3999 34.5653 19.1597Z" fill="#020416" fill-opacity="0.8"/>
<path d="M54.3061 13.4668V15.1851H48.4579V17.9068H50.8892C51.7354 17.9068 52.4864 18.0522 53.1403 18.3454C53.7951 18.6393 54.2992 19.0477 54.6521 19.5712C55.0064 20.0959 55.1827 20.6903 55.1827 21.3586C55.1827 22.4231 54.7977 23.2708 54.0294 23.8991C53.2611 24.5292 52.2521 24.8431 51.0053 24.8431H46.2034V13.4668H54.3061ZM50.6298 23.1266C51.2868 23.1266 51.8181 22.963 52.2248 22.6382C52.631 22.311 52.8363 21.8797 52.8363 21.3422C52.8363 20.8048 52.6332 20.3813 52.2304 20.0717C51.8255 19.762 51.2703 19.6063 50.5635 19.6063H48.4579V23.126H50.6298V23.1266Z" fill="#020416" fill-opacity="0.8"/>
<path d="M60.6221 13.4668C61.713 13.4668 62.6004 13.7752 63.2824 14.392C63.9645 15.0082 64.3049 15.8025 64.3049 16.7738C64.3049 17.7565 63.9593 18.5527 63.2681 19.1598C62.5787 19.7681 61.668 20.0723 60.5372 20.0723H58.3658V24.8437H56.1104V13.4668H60.6221ZM60.0621 18.3533C60.6624 18.3533 61.1331 18.2188 61.47 17.951C61.8065 17.6814 61.975 17.2852 61.975 16.7574C61.975 15.7104 61.2847 15.1851 59.9032 15.1851H58.3658V18.3533H60.0621Z" fill="#020416" fill-opacity="0.8"/>
<path d="M71.3978 13.3213C72.6065 13.3213 73.6952 13.5631 74.6609 14.0496C75.6267 14.5349 76.3963 15.2365 76.9705 16.1508C77.5435 17.0657 77.831 18.0697 77.831 19.1597C77.831 20.2237 77.5508 21.2119 76.9917 22.1207C76.4322 23.0296 75.6631 23.7366 74.6874 24.2377C73.7091 24.74 72.6073 24.9914 71.383 24.9914C70.1739 24.9914 69.0752 24.7358 68.0874 24.225C67.0987 23.7148 66.3291 23.0132 65.7778 22.1207C65.2265 21.2276 64.9502 20.2406 64.9502 19.1597C64.9502 18.117 65.2265 17.1378 65.7778 16.2211C66.3291 15.302 67.0887 14.5894 68.0575 14.0823C69.0258 13.5745 70.1405 13.3213 71.3978 13.3213ZM67.2805 19.1597C67.2805 19.9146 67.4551 20.5933 67.8067 21.1955C68.1588 21.7984 68.6452 22.2649 69.2731 22.5963C69.9002 22.9278 70.6078 23.0938 71.3978 23.0938C72.5965 23.0938 73.5809 22.7278 74.3522 21.9929C75.1235 21.2616 75.508 20.3164 75.508 19.1597C75.508 18.4048 75.3339 17.7262 74.9875 17.1196C74.638 16.515 74.1482 16.046 73.515 15.714C72.8836 15.3825 72.1721 15.2177 71.3822 15.2177C70.5905 15.2177 69.8794 15.385 69.248 15.7182C68.6153 16.0521 68.1302 16.5192 67.7894 17.1196C67.4503 17.7201 67.2805 18.3999 67.2805 19.1597Z" fill="#020416" fill-opacity="0.8"/>
<path d="M86.6783 13.4668V15.1851H80.8305V17.9068H83.2618C84.108 17.9068 84.8581 18.0522 85.5133 18.3454C86.1681 18.6393 86.6709 19.0477 87.0251 19.5712C87.379 20.0959 87.5548 20.6903 87.5548 21.3586C87.5548 22.4231 87.1707 23.2708 86.4024 23.8991C85.6346 24.5292 84.6255 24.8431 83.3783 24.8431H78.5759V13.4668H86.6783ZM83.0032 23.1266C83.6606 23.1266 84.192 22.963 84.5991 22.6382C85.0053 22.311 85.2088 21.8797 85.2088 21.3422C85.2088 20.8048 85.0066 20.3813 84.6034 20.0717C84.1989 19.762 83.6433 19.6063 82.9374 19.6063H80.8309V23.126H83.0032V23.1266Z" fill="#020416" fill-opacity="0.8"/>
<path d="M89.6449 13.4668L93.5958 20.028L96.7629 13.4668H99.0681L94.7578 22.2111C94.7578 22.2111 93.8639 24.0518 93.2983 24.5571C92.7336 25.0612 92.0281 25.3151 91.181 25.3151C90.4912 25.3151 89.9208 25.1927 89.4695 24.9473V23.0084C89.994 23.3562 90.5297 23.5301 91.0814 23.5301C91.4313 23.5301 91.7449 23.4314 92.0169 23.2369C92.2901 23.0417 92.4686 22.7679 92.5513 22.4147L87.2964 13.4668H89.6449Z" fill="#020416" fill-opacity="0.8"/>
<path d="M109.802 13.4668V15.1851H105.659V24.8437H103.403V15.1851H99.2598V13.4668H109.802Z" fill="#020416" fill-opacity="0.8"/>
<path d="M1.24815 37.9912C5.96721 37.3165 10.0106 35.5629 14.6448 37.6963C15.4881 38.0846 16.2258 36.8624 15.3793 36.4721C13.0681 35.4091 10.831 34.9328 8.2805 35.1927C5.7757 35.4452 3.35471 36.2684 0.862965 36.6259C-0.0619154 36.7564 0.333061 38.1217 1.24815 37.9912Z" fill="#95C14E" fill-opacity="0.8"/>
<path d="M9.39297 1.07192C9.19168 1.38911 8.98493 1.70206 8.77056 2.01076C8.67918 2.13912 8.58343 2.26961 8.48547 2.39585C8.44524 2.44889 8.41692 2.48708 8.39518 2.5189C8.38647 2.52739 8.3756 2.538 8.36581 2.54861C7.61175 1.7795 6.55302 1.4273 5.46818 1.9853C4.41491 2.52527 3.7033 4.10486 4.45627 5.15722C5.74786 6.96488 7.68464 8.2432 9.97511 7.20039C11.5289 6.49173 12.5659 5.00125 13.4396 3.62218C15.0772 1.0454 11.0284 -1.50273 9.39297 1.07192Z" fill="#CE3728" fill-opacity="0.8"/>
<path d="M10.6431 23.3394C10.2862 20.8146 10.6083 18.9804 11.6355 16.6667C12.5505 14.6055 13.3742 12.591 13.1816 10.3028C13.0717 9.00961 10.9815 8.90883 11.0925 10.2168C11.2546 12.155 10.6083 13.847 9.85531 15.5645C9.54632 15.4659 9.19051 15.5041 8.87276 15.7693C8.46147 16.113 8.17201 15.9995 7.84015 15.6154C7.55289 15.2834 7.19383 15.2145 6.87284 15.3036C6.3092 13.6094 5.85222 11.9577 6.16667 10.1118C6.38754 8.81653 4.29405 8.74758 4.07752 10.027C3.40072 14.003 6.3658 17.369 5.89029 21.2633C5.59758 23.6524 5.71619 26.052 5.45938 28.4399C5.22111 30.6656 4.66292 32.6302 4.66292 34.8824C4.66184 36.1946 6.75206 36.2838 6.75206 34.9673C6.75422 32.9464 7.11441 31.144 7.45714 29.1581C7.52786 28.7433 7.57576 28.3264 7.61382 27.9084C8.13611 27.8681 8.62141 27.7663 9.09146 27.5743C9.14477 27.9986 9.19921 28.423 9.24923 28.8462C9.48863 30.9042 10.5027 32.7777 10.3841 34.8739C10.3101 36.1883 12.4004 36.271 12.4733 34.9588C12.5777 33.1098 11.9532 31.3763 11.5255 29.5952C11.037 27.5679 10.9347 25.407 10.6431 23.3394Z" fill="#020416" fill-opacity="0.8"/>
<path d="M8.64928 14.7754C8.97244 14.7011 9.34133 14.4307 9.40876 14.0922C9.58939 13.1969 9.62637 12.3408 9.52192 11.4348C9.4599 10.8811 8.77331 10.5575 8.26735 10.671C7.74615 10.7888 7.49588 11.2046 7.47739 11.6714C7.1923 11.8146 6.98014 12.0883 6.96273 12.4956C6.93228 13.2446 7.03674 13.9501 7.64278 14.4731C7.93112 14.7203 8.2554 14.8645 8.64928 14.7754Z" fill="#020416" fill-opacity="0.8"/>
</g>
<defs>
<clipPath id="clip0_583_8027">
<rect width="110" height="38" fill="white"/>
</clipPath>
</defs>
</svg>
