<svg width="110" height="38" viewBox="0 0 110 38" fill="none" xmlns="http://www.w3.org/2000/svg">
<g clip-path="url(#clip0_583_7693)">
<path d="M27.2059 13.467L31.1889 23.0123H32.5275V26.9294H30.3052V24.8439H22.1932V26.9294H19.9714V23.0123H21.2989L25.0326 13.467H27.2059ZM23.5797 23.0123H28.9L26.1271 16.0088L23.5797 23.0123Z" fill="white" fill-opacity="0.5"/>
<path d="M38.6838 13.3215C39.8913 13.3215 40.9789 13.5632 41.9465 14.0498C42.9116 14.5351 43.6817 15.2367 44.256 16.151C44.8293 17.0659 45.116 18.0699 45.116 19.1599C45.116 20.2238 44.8367 21.212 44.2763 22.1209C43.7172 23.0297 42.9477 23.7368 41.9713 24.2379C40.9932 24.7402 39.8913 24.9916 38.667 24.9916C37.4583 24.9916 36.3602 24.7359 35.3708 24.2252C34.3833 23.715 33.6133 23.0134 33.0614 22.1209C32.5102 21.2278 32.2349 20.2408 32.2349 19.1599C32.2349 18.1171 32.5102 17.138 33.0614 16.2213C33.6133 15.3021 34.3727 14.5896 35.3428 14.0825C36.3111 13.5747 37.4247 13.3215 38.6838 13.3215ZM34.5653 19.1599C34.5653 19.9148 34.7419 20.5934 35.0917 21.1957C35.4429 21.7986 35.9301 22.2651 36.5578 22.5965C37.1848 22.928 37.8933 23.094 38.6844 23.094C39.8814 23.094 40.8658 22.728 41.6382 21.993C42.4095 21.2617 42.7948 20.3165 42.7948 19.1599C42.7948 18.4049 42.6202 17.7263 42.2728 17.1198C41.9229 16.5152 41.4344 16.0462 40.8024 15.7142C40.1703 15.3827 39.4581 15.2179 38.6677 15.2179C37.8778 15.2179 37.1649 15.3851 36.5335 15.7184C35.9009 16.0522 35.4149 16.5194 35.0768 17.1198C34.7363 17.7203 34.5653 18.4001 34.5653 19.1599Z" fill="white" fill-opacity="0.5"/>
<path d="M54.3061 13.467V15.1854H48.4579V17.907H50.8892C51.7354 17.907 52.4864 18.0525 53.1403 18.3457C53.7951 18.6396 54.2992 19.0479 54.6521 19.5714C55.0064 20.0961 55.1827 20.6905 55.1827 21.3588C55.1827 22.4234 54.7977 23.271 54.0294 23.8994C53.2611 24.5295 52.2521 24.8433 51.0053 24.8433H46.2034V13.467H54.3061ZM50.6298 23.1268C51.2868 23.1268 51.8181 22.9632 52.2248 22.6385C52.631 22.3113 52.8363 21.8799 52.8363 21.3425C52.8363 20.805 52.6332 20.3815 52.2304 20.0719C51.8255 19.7623 51.2703 19.6066 50.5635 19.6066H48.4579V23.1262H50.6298V23.1268Z" fill="white" fill-opacity="0.5"/>
<path d="M60.6221 13.4669C61.713 13.4669 62.6004 13.7753 63.2824 14.3921C63.9645 15.0083 64.3049 15.8027 64.3049 16.7739C64.3049 17.7567 63.9593 18.5528 63.2681 19.1599C62.5787 19.7682 61.668 20.0724 60.5372 20.0724H58.3658V24.8438H56.1104V13.4669H60.6221ZM60.0621 18.3535C60.6624 18.3535 61.1331 18.2189 61.47 17.9511C61.8065 17.6815 61.975 17.2853 61.975 16.7576C61.975 15.7105 61.2847 15.1852 59.9032 15.1852H58.3658V18.3535H60.0621Z" fill="white" fill-opacity="0.5"/>
<path d="M71.3978 13.3214C72.6065 13.3214 73.6952 13.5631 74.6609 14.0496C75.6267 14.5349 76.3963 15.2366 76.9705 16.1509C77.5435 17.0658 77.831 18.0697 77.831 19.1598C77.831 20.2237 77.5508 21.2119 76.9917 22.1208C76.4322 23.0296 75.6631 23.7367 74.6874 24.2378C73.7091 24.7401 72.6073 24.9915 71.383 24.9915C70.1739 24.9915 69.0752 24.7358 68.0874 24.225C67.0987 23.7149 66.3291 23.0133 65.7778 22.1208C65.2265 21.2277 64.9502 20.2407 64.9502 19.1598C64.9502 18.117 65.2265 17.1379 65.7778 16.2212C66.3291 15.302 67.0887 14.5895 68.0575 14.0824C69.0258 13.5746 70.1405 13.3214 71.3978 13.3214ZM67.2805 19.1598C67.2805 19.9147 67.4551 20.5933 67.8067 21.1956C68.1588 21.7984 68.6452 22.265 69.2731 22.5964C69.9002 22.9278 70.6078 23.0939 71.3978 23.0939C72.5965 23.0939 73.5809 22.7279 74.3522 21.993C75.1235 21.2616 75.508 20.3164 75.508 19.1598C75.508 18.4048 75.3339 17.7262 74.9875 17.1197C74.638 16.515 74.1482 16.0461 73.515 15.714C72.8836 15.3826 72.1721 15.2178 71.3822 15.2178C70.5905 15.2178 69.8794 15.385 69.248 15.7183C68.6153 16.0521 68.1302 16.5193 67.7894 17.1197C67.4503 17.7201 67.2805 18.4 67.2805 19.1598Z" fill="white" fill-opacity="0.5"/>
<path d="M86.6783 13.4669V15.1852H80.8305V17.9069H83.2618C84.108 17.9069 84.8581 18.0523 85.5133 18.3456C86.1681 18.6394 86.6709 19.0478 87.0251 19.5713C87.379 20.096 87.5548 20.6904 87.5548 21.3587C87.5548 22.4233 87.1707 23.2709 86.4024 23.8992C85.6346 24.5294 84.6255 24.8432 83.3783 24.8432H78.5759V13.4669H86.6783ZM83.0032 23.1267C83.6606 23.1267 84.192 22.9631 84.5991 22.6383C85.0053 22.3112 85.2088 21.8798 85.2088 21.3423C85.2088 20.8049 85.0066 20.3814 84.6034 20.0718C84.1989 19.7622 83.6433 19.6065 82.9374 19.6065H80.8309V23.1261H83.0032V23.1267Z" fill="white" fill-opacity="0.5"/>
<path d="M89.6449 13.4669L93.5958 20.0282L96.7629 13.4669H99.0681L94.7578 22.2112C94.7578 22.2112 93.8639 24.0519 93.2983 24.5572C92.7336 25.0614 92.0281 25.3152 91.181 25.3152C90.4912 25.3152 89.9208 25.1928 89.4695 24.9474V23.0086C89.994 23.3563 90.5297 23.5302 91.0814 23.5302C91.4313 23.5302 91.7449 23.4315 92.0169 23.237C92.2901 23.0419 92.4686 22.768 92.5513 22.4148L87.2964 13.4669H89.6449Z" fill="white" fill-opacity="0.5"/>
<path d="M109.802 13.4669V15.1852H105.659V24.8438H103.403V15.1852H99.2598V13.4669H109.802Z" fill="white" fill-opacity="0.5"/>
<path d="M1.24815 37.9912C5.96721 37.3165 10.0106 35.5629 14.6448 37.6963C15.4881 38.0846 16.2258 36.8624 15.3793 36.4721C13.0681 35.4091 10.831 34.9328 8.2805 35.1927C5.7757 35.4452 3.35471 36.2684 0.862965 36.6259C-0.0619154 36.7564 0.333061 38.1217 1.24815 37.9912Z" fill="white" fill-opacity="0.5"/>
<path d="M9.39297 1.0718C9.19168 1.38899 8.98493 1.70194 8.77056 2.01064C8.67918 2.139 8.58343 2.26948 8.48547 2.39572C8.44524 2.44877 8.41692 2.48696 8.39518 2.51878C8.38647 2.52727 8.3756 2.53788 8.36581 2.54848C7.61175 1.77938 6.55302 1.42718 5.46818 1.98518C4.41491 2.52515 3.7033 4.10474 4.45627 5.15709C5.74786 6.96475 7.68464 8.24307 9.97511 7.20027C11.5289 6.49161 12.5659 5.00113 13.4396 3.62206C15.0772 1.04528 11.0284 -1.50286 9.39297 1.0718Z" fill="white" fill-opacity="0.5"/>
<path d="M10.6431 23.3393C10.2862 20.8145 10.6083 18.9803 11.6355 16.6666C12.5505 14.6054 13.3742 12.5909 13.1816 10.3026C13.0717 9.00949 10.9815 8.9087 11.0925 10.2167C11.2546 12.1549 10.6083 13.8469 9.85531 15.5644C9.54632 15.4657 9.19051 15.5039 8.87276 15.7691C8.46147 16.1129 8.17201 15.9993 7.84015 15.6153C7.55289 15.2833 7.19383 15.2143 6.87284 15.3034C6.3092 13.6093 5.85222 11.9576 6.16667 10.1117C6.38754 8.81641 4.29405 8.74746 4.07752 10.0268C3.40072 14.0029 6.3658 17.3689 5.89029 21.2632C5.59758 23.6522 5.71619 26.0519 5.45938 28.4398C5.22111 30.6654 4.66292 32.6301 4.66292 34.8823C4.66184 36.1945 6.75206 36.2837 6.75206 34.9672C6.75422 32.9462 7.11441 31.1439 7.45714 29.158C7.52786 28.7432 7.57576 28.3263 7.61382 27.9083C8.13611 27.868 8.62141 27.7662 9.09146 27.5742C9.14477 27.9985 9.19921 28.4228 9.24923 28.8461C9.48863 30.9041 10.5027 32.7776 10.3841 34.8738C10.3101 36.1882 12.4004 36.2709 12.4733 34.9587C12.5777 33.1096 11.9532 31.3762 11.5255 29.5951C11.037 27.5678 10.9347 25.4069 10.6431 23.3393Z" fill="white" fill-opacity="0.5"/>
<path d="M8.64928 14.7755C8.97244 14.7012 9.34133 14.4308 9.40876 14.0924C9.58939 13.197 9.62637 12.3409 9.52192 11.4349C9.4599 10.8812 8.77331 10.5576 8.26735 10.6711C7.74615 10.7889 7.49588 11.2047 7.47739 11.6715C7.1923 11.8147 6.98014 12.0884 6.96273 12.4958C6.93228 13.2448 7.03674 13.9502 7.64278 14.4732C7.93112 14.7204 8.2554 14.8646 8.64928 14.7755Z" fill="white" fill-opacity="0.5"/>
</g>
<defs>
<clipPath id="clip0_583_7693">
<rect width="110" height="38" fill="white"/>
</clipPath>
</defs>
</svg>
