<svg width="45" height="52" viewBox="0 0 45 52" fill="none" xmlns="http://www.w3.org/2000/svg">
<g clip-path="url(#clip0_583_7684)">
<path fill-rule="evenodd" clip-rule="evenodd" d="M22.4546 0C11.163 0 1.99878 9.23821 1.99878 20.621C1.99878 23.2485 2.49526 25.7558 3.38531 28.0675H4.60977C3.66579 25.7738 3.15122 23.2578 3.15122 20.621C3.15122 9.87949 11.7991 1.16351 22.4546 1.16351C33.11 1.16351 41.7579 9.87949 41.7579 20.621C41.7579 23.2578 41.2433 25.7738 40.2994 28.0675H41.5238C42.4139 25.7558 42.9104 23.2485 42.9104 20.621C42.9104 9.23821 33.7462 0 22.4546 0Z" fill="white" fill-opacity="0.2"/>
<path fill-rule="evenodd" clip-rule="evenodd" d="M22.4546 2.32703C12.4353 2.32703 4.30371 10.5208 4.30371 20.621C4.30371 23.2723 4.86261 25.7923 5.87031 28.0675H39.0389C40.0466 25.7923 40.6055 23.2723 40.6055 20.621C40.6055 10.5208 32.4739 2.32702 22.4546 2.32703Z" fill="white" fill-opacity="0.2"/>
<path fill-rule="evenodd" clip-rule="evenodd" d="M15.972 6.30084L6.46436 25.4898H12.9468L16.5482 18.3298L22.4544 25.4898L28.3607 18.3298L31.9621 25.4898H38.4445L28.9369 6.30084L22.4544 15.1793L15.972 6.30084Z" fill="white" fill-opacity="0.2"/>
<path fill-rule="evenodd" clip-rule="evenodd" d="M5.04192 29.4995L0 43.5332H12.2807L20.1857 33.8314L14.4235 43.6764L22.4545 52L30.4856 43.6764L24.7414 33.8314L32.6284 43.5332H44.9091L39.8672 29.4995H23.697H21.2121H5.04192Z" fill="white" fill-opacity="0.2"/>
<path fill-rule="evenodd" clip-rule="evenodd" d="M1.42261 42.5308L5.74425 30.5019H21.5903L11.7946 42.5308H1.42261Z" fill="white" fill-opacity="0.2"/>
<path fill-rule="evenodd" clip-rule="evenodd" d="M43.4865 42.5308L39.1649 30.5019H23.3188L33.1146 42.5308H43.4865Z" fill="white" fill-opacity="0.2"/>
<path fill-rule="evenodd" clip-rule="evenodd" d="M22.4547 50.5501L15.6841 43.5332L22.4547 31.9339L29.2252 43.5332L22.4547 50.5501Z" fill="white" fill-opacity="0.2"/>
</g>
<defs>
<clipPath id="clip0_583_7684">
<rect width="44.9091" height="52" fill="white"/>
</clipPath>
</defs>
</svg>
