<svg width="74" height="56" viewBox="0 0 74 56" fill="none" xmlns="http://www.w3.org/2000/svg">
<path d="M11.884 7.57128C9.64262 7.9637 6.54907 10.2028 6.54907 14.3116C6.54907 20.6826 11.7322 22.5292 14.9425 22.8409C19.6937 23.291 22.7289 20.0132 22.7289 16.2391C22.7172 7.04037 14.1253 7.19041 11.884 7.57128ZM14.5456 19.413C11.8606 19.2283 10.343 18.1319 10.343 14.6925C10.343 12.9381 10.9618 11.7955 13.1914 11.2646C15.4211 10.7337 19.0517 11.5301 19.0517 15.6158C19.04 17.3355 17.7325 19.6323 14.5456 19.413Z" fill="white" fill-opacity="0.2"/>
<path d="M28.7524 45.6356L30.9821 36.8986L31.7993 36.9563C31.7993 36.9563 33.2702 45.6356 33.2585 45.6356H32.383C32.383 45.6356 31.1923 38.526 31.1923 38.5375H31.1339C31.1339 38.5375 30.1533 43.5812 29.4412 45.6356H28.7524Z" fill="white" fill-opacity="0.5"/>
<path d="M32.92 44.7931L32.815 45.6356H29.0793V44.7931H32.92Z" fill="white" fill-opacity="0.5"/>
<path d="M43.041 17.9588L43.2862 12.4073H42.399L42.0254 21.3751L43.3912 21.3636C43.3912 21.3636 45.2357 21.202 45.2357 19.6093C45.224 18.4551 43.8465 18.005 43.041 17.9588ZM42.9243 20.7057L43.0293 18.6282C43.4846 18.6051 44.3368 18.6167 44.3368 19.7016C44.3368 20.4749 43.3445 20.7288 42.9243 20.7057Z" fill="white" fill-opacity="0.5"/>
<path d="M40.2862 14.7387L41.1384 14.6348C41.1384 14.6348 41.4652 12.2803 39.7842 12.338C38.1032 12.3957 37.5779 14.6348 37.5895 16.9662C37.6012 19.2976 37.8113 21.5367 39.5741 21.4905C41.3368 21.4444 40.9633 19.1591 40.9633 19.1591L40.0761 19.2515C40.0761 19.2515 40.4379 20.6018 39.6325 20.6018C38.6752 20.6018 38.3834 19.413 38.4651 17.0239C38.5468 14.6002 38.6519 13.1921 39.7842 13.1921C40.4146 13.1921 40.2862 14.7387 40.2862 14.7387Z" fill="white" fill-opacity="0.5"/>
<path d="M21.0828 19.113C20.6625 17.9357 19.5418 17.9242 18.8881 18.0858L18.9582 16.2391C21.3863 15.9737 21.5381 12.6151 21.5381 12.6151H20.6508C20.6508 15.1542 19.3901 15.5466 18.9932 15.5466L19.0749 12.6151H18.1643L17.9192 21.3751H18.8414L18.8998 18.7321C20.8143 18.1089 20.6042 21.3521 20.6042 21.3521H21.468C21.468 21.3751 21.6081 20.5788 21.0828 19.113Z" fill="white" fill-opacity="0.5"/>
<path d="M16.5767 31.324C16.1564 30.1467 15.0357 30.1352 14.382 30.2968L14.4521 28.4501C17.0436 28.1616 17.137 24.6991 17.137 24.6991H16.2498C16.2498 27.2383 14.884 27.7576 14.4871 27.7576L14.5688 24.7106H13.6582L13.4131 33.5977H14.3353L14.3937 30.9547C16.3082 30.3314 16.0981 33.5746 16.0981 33.5746H16.9619C16.9502 33.5862 17.0903 32.7898 16.5767 31.324Z" fill="white" fill-opacity="0.5"/>
<path d="M48.9715 19.113C48.5512 17.9357 47.4305 17.9242 46.7768 18.0858L46.8468 16.2391C49.275 15.9737 49.4267 12.6151 49.4267 12.6151H48.5395C48.5395 15.1542 47.2788 15.5466 46.8818 15.5466L46.9636 12.6151H46.053L45.8079 21.3751H46.7301L46.7885 18.7321C48.703 18.1089 48.4928 21.3521 48.4928 21.3521H49.3567C49.3567 21.3751 49.4968 20.5788 48.9715 19.113Z" fill="white" fill-opacity="0.5"/>
<path d="M22.9739 21.4213H22.145L22.4018 12.7535H23.2774L22.9739 21.4213Z" fill="white" fill-opacity="0.5"/>
<path d="M22.9855 16.2968C22.9855 16.2968 25.7288 16.343 25.7288 14.3347C25.7288 13.1113 24.2346 12.7882 23.254 12.6958C22.7637 12.6612 22.4018 12.6727 22.4018 12.6727L22.3901 13.3537L23.219 13.3306C23.219 13.3306 24.865 13.0998 24.865 14.3578C24.865 15.108 24.0828 15.6043 23.0205 15.6043L22.9855 16.2968Z" fill="white" fill-opacity="0.5"/>
<path d="M40.3562 33.5516H39.5273L39.7842 24.8838L40.648 24.8723L40.3562 33.5516Z" fill="white" fill-opacity="0.5"/>
<path d="M40.3678 28.4271C40.3678 28.4271 43.1112 28.4732 43.1112 26.465C43.1112 25.2416 41.6169 24.9184 40.6363 24.8261C40.146 24.7915 39.7841 24.803 39.7841 24.803L39.7725 25.484L40.6013 25.4609C40.6013 25.4609 42.2473 25.23 42.2473 26.4881C42.2473 27.2383 41.4652 27.7346 40.4028 27.7346L40.3678 28.4271Z" fill="white" fill-opacity="0.5"/>
<path d="M30.947 21.3636H30.0598L30.41 12.6151L31.3089 12.6266L30.947 21.3636Z" fill="white" fill-opacity="0.5"/>
<path d="M31.7758 10.2259C31.4256 10.3182 31.1221 10.5491 31.1221 11.0569C31.1221 11.8417 31.7641 12.0495 32.1494 12.1072C32.2894 12.1303 32.3245 12.1187 32.3245 12.1187C32.3945 12.1072 32.4529 12.1072 32.5229 12.0841C32.8381 11.9802 33.0949 11.7609 33.0949 11.2993C33.1066 10.1567 31.7758 10.2259 31.7758 10.2259ZM32.2778 11.4839C32.2661 11.4839 32.2544 11.4955 32.2428 11.4955C32.2077 11.507 32.1727 11.507 32.1377 11.507C31.9042 11.4955 31.7408 11.4262 31.7408 11.1146C31.7408 10.9646 31.8342 10.8492 31.9626 10.8261C32.2778 10.8261 32.4996 10.8607 32.4996 11.2185C32.4879 11.3685 32.3828 11.4493 32.2778 11.4839Z" fill="white" fill-opacity="0.5"/>
<path d="M29.2426 10.2259C28.8924 10.3182 28.5889 10.5491 28.5889 11.0569C28.5889 11.8417 29.2309 12.0495 29.6162 12.1072C29.7562 12.1303 29.7913 12.1187 29.7913 12.1187C29.8613 12.1072 29.9197 12.1072 29.9897 12.0841C30.3049 11.9802 30.5617 11.7609 30.5617 11.2993C30.5734 10.1567 29.2426 10.2259 29.2426 10.2259ZM29.7446 11.4839C29.7329 11.4839 29.7212 11.4955 29.7095 11.4955C29.6745 11.507 29.6395 11.507 29.6045 11.507C29.371 11.4955 29.2076 11.4262 29.2076 11.1146C29.2076 10.9646 29.301 10.8492 29.4294 10.8261C29.7446 10.8261 29.9664 10.8607 29.9664 11.2185C29.9664 11.3685 29.8613 11.4493 29.7446 11.4839Z" fill="white" fill-opacity="0.5"/>
<path d="M14.7791 19.1707C14.2771 19.2977 13.8335 19.6324 13.8335 20.3595C13.8335 21.479 14.7557 21.7791 15.3161 21.8599C15.5145 21.883 15.5612 21.883 15.5729 21.883C15.6663 21.8599 15.7597 21.8599 15.8531 21.8368C16.2967 21.6868 16.6819 21.3636 16.6819 20.7057C16.6819 19.0784 14.7791 19.1707 14.7791 19.1707ZM15.5262 21.0635C15.5028 21.0751 15.4912 21.0751 15.4678 21.0866C15.4095 21.0981 15.3394 21.0981 15.2927 21.0981C14.9075 21.0751 14.639 20.9596 14.639 20.4518C14.639 20.1979 14.8024 20.0132 15.0009 19.9786C15.5145 19.9786 15.8881 20.0363 15.8881 20.6249C15.8881 20.8673 15.713 20.9943 15.5262 21.0635Z" fill="white" fill-opacity="0.5"/>
<path d="M16.2265 12.6151L16.2732 14.7503C16.2732 15.4081 16.2615 15.8467 16.2149 16.3315C16.1448 17.174 16.0397 18.155 15.2693 18.155C14.4988 18.155 14.3937 16.9316 14.312 16.3315C14.277 16.0891 14.2303 15.7313 14.2303 14.7272C14.2303 13.723 14.312 12.6151 14.312 12.6151H13.4365C13.4365 12.6151 13.3665 13.9654 13.3665 14.7156C13.3665 15.4543 13.4131 15.9737 13.4365 16.3199C13.5649 17.9242 13.9268 18.8129 15.281 18.8129C16.5184 18.8129 16.9736 17.9473 17.1137 16.3084C17.1604 15.7544 17.1604 15.3504 17.1604 14.7387L17.1021 12.6266L16.2265 12.6151Z" fill="white" fill-opacity="0.5"/>
<path d="M19.5769 31.2663C19.0749 31.3932 18.6313 31.7279 18.6313 32.4551C18.6313 33.5746 19.5536 33.8747 20.1139 33.9555C20.3124 33.9786 20.3591 33.9786 20.3707 33.9786C20.4641 33.9555 20.5575 33.9555 20.6509 33.9324C21.0945 33.7824 21.4797 33.4592 21.4797 32.8013C21.4914 31.1739 19.5769 31.2663 19.5769 31.2663ZM20.324 33.1591C20.3007 33.1706 20.289 33.1706 20.2657 33.1822C20.2073 33.1937 20.1373 33.1937 20.0906 33.1937C19.7053 33.1706 19.4368 33.0552 19.4368 32.5474C19.4368 32.2935 19.6003 32.1088 19.7987 32.0742C20.3124 32.0742 20.6859 32.1319 20.6859 32.7205C20.6859 32.9629 20.5225 33.0899 20.324 33.1591Z" fill="white" fill-opacity="0.5"/>
<path d="M21.0244 24.7106L21.0711 26.8458C21.0711 27.5037 21.0594 27.9423 21.0127 28.427C20.9427 29.2696 20.8376 30.2506 20.0671 30.2506C19.2967 30.2506 19.1916 29.0272 19.1099 28.427C19.0749 28.1847 19.0282 27.8269 19.0282 26.8227C19.0282 25.8302 19.1099 24.7106 19.1099 24.7106H18.2343C18.2343 24.7106 18.1643 26.061 18.1643 26.8112C18.1643 27.5499 18.211 28.0692 18.2343 28.4155C18.3628 30.0198 18.7246 30.9085 20.0788 30.9085C21.3162 30.9085 21.7715 30.0429 21.9116 28.404C21.9583 27.85 21.9583 27.446 21.9583 26.8343L21.8999 24.7222L21.0244 24.7106Z" fill="white" fill-opacity="0.5"/>
<path d="M36.2119 31.3356C35.71 31.4625 35.2664 31.7972 35.2664 32.5243C35.2664 33.6439 36.1886 33.944 36.7489 34.0248C36.9474 34.0478 36.9941 34.0478 37.0057 34.0478C37.0991 34.0248 37.1925 34.0248 37.2859 34.0017C37.7295 33.8516 38.1148 33.5285 38.1148 32.8706C38.1264 31.2432 36.2119 31.3356 36.2119 31.3356ZM36.9707 33.2168C36.9474 33.2284 36.9357 33.2284 36.9124 33.2399C36.854 33.2515 36.7839 33.2515 36.7373 33.2515C36.352 33.2284 36.0835 33.113 36.0835 32.6051C36.0835 32.3512 36.247 32.1666 36.4454 32.1319C36.9591 32.1319 37.3326 32.1896 37.3326 32.7783C37.3209 33.0322 37.1575 33.1476 36.9707 33.2168Z" fill="white" fill-opacity="0.5"/>
<path d="M37.6711 24.7799L37.7178 26.9151C37.7178 27.573 37.7061 28.0116 37.6594 28.4963C37.5894 29.3389 37.4843 30.3199 36.7139 30.3199C35.9434 30.3199 35.8383 29.0965 35.7566 28.4963C35.7216 28.2539 35.6749 27.8961 35.6749 26.892C35.6749 25.8879 35.7566 24.7799 35.7566 24.7799H34.8811C34.8811 24.7799 34.811 26.1303 34.811 26.8805C34.811 27.6191 34.8577 28.1385 34.8811 28.4848C35.0095 30.0891 35.3714 30.9778 36.7255 30.9778C37.963 30.9778 38.4182 30.1121 38.5583 28.4732C38.605 27.9192 38.605 27.5153 38.605 26.9036L38.5466 24.7914L37.6711 24.7799Z" fill="white" fill-opacity="0.5"/>
<path d="M53.8626 12.6266L51.3644 19.4246L51.6329 12.6266H50.7574L50.4539 21.3636H51.3527L53.921 14.1732L53.7459 21.3636H54.6097L54.7381 12.6266H53.8626Z" fill="white" fill-opacity="0.5"/>
<path d="M52.2166 24.8261L49.7184 31.6125L49.9869 24.8145H49.1231L48.8079 33.5631H49.7067L52.2866 26.3726L52.1115 33.5515L52.9637 33.5631L53.0921 24.8261H52.2166Z" fill="white" fill-opacity="0.5"/>
<path d="M28.0521 24.7915L27.2232 24.7338L26.8613 33.4015L27.7252 33.4708L28.0521 24.7915Z" fill="white" fill-opacity="0.5"/>
<path d="M27.6901 29.9044C27.6901 29.9044 30.4335 30.0545 30.2817 32.0512C30.1883 33.2746 28.6824 33.4939 27.7018 33.5054C27.2115 33.5169 26.8496 33.4708 26.8496 33.4708L26.8846 32.7898L27.7135 32.8706C27.7135 32.8706 29.3361 33.2169 29.4295 31.9588C29.4879 31.2086 28.7291 30.6546 27.6784 30.5854L27.6901 29.9044Z" fill="white" fill-opacity="0.5"/>
<path d="M32.3013 33.5054H31.4958L31.706 24.7799H32.5231L32.3013 33.5054Z" fill="white" fill-opacity="0.5"/>
<path d="M30.1767 24.7799L33.9006 24.7106V25.38L30.165 25.4378L30.1767 24.7799Z" fill="white" fill-opacity="0.5"/>
<path d="M22.9154 40.9728C22.9154 40.3957 22.8921 39.9571 22.8571 39.6224V39.5301C22.8571 39.4839 22.8454 39.4262 22.8454 39.3801C22.717 37.7873 22.3551 36.9102 21.0243 36.9102C19.7986 36.9102 19.3433 37.7642 19.2032 39.3916C19.1565 39.9456 19.1565 40.338 19.1565 40.9497V41.1575C19.1565 41.3191 19.1565 41.4691 19.1565 41.5961C19.1565 42.1731 19.1798 42.6117 19.2149 42.9464V43.0388C19.2149 43.0849 19.2265 43.1426 19.2265 43.1888C19.3549 44.7816 19.7168 45.6587 21.0476 45.6587C22.2734 45.6587 22.7287 44.8046 22.8688 43.1773C22.9154 42.6233 22.9154 42.2309 22.9154 41.6191V41.4114C22.9154 41.2498 22.9154 41.0998 22.9154 40.9728ZM21.036 44.7931C20.2772 44.7931 20.1604 43.8005 20.0904 43.2003C20.0904 43.1773 20.032 42.1962 20.032 41.2267C20.032 40.3034 20.0787 39.4032 20.0787 39.3801C20.1488 38.5491 20.2538 37.7873 21.0126 37.7873C21.7714 37.7873 21.8882 38.7799 21.9582 39.3801C21.9582 39.4032 22.0166 40.338 22.0166 41.2729C22.0166 42.2193 21.9699 43.1773 21.9699 43.2003C21.8998 44.0313 21.7948 44.7931 21.036 44.7931Z" fill="white" fill-opacity="0.5"/>
<path d="M26.3708 17.9242L28.297 17.7626L28.4021 18.4089L26.3008 18.5012L26.3708 17.9242Z" fill="white" fill-opacity="0.5"/>
<path d="M29.2309 21.4213L28.0519 12.6381L27.1413 12.5573L25.4253 21.4097H26.1724L27.4332 14.4155L27.5149 14.404L28.2854 21.3867L29.2309 21.4213Z" fill="white" fill-opacity="0.5"/>
<path d="M16.028 45.6818H15.1758L15.2925 36.9217H16.1797L16.028 45.6818Z" fill="white" fill-opacity="0.5"/>
<path d="M13.9968 41.3537C13.9968 40.892 13.7866 37.5449 15.6778 38.122L15.6661 37.4642C15.0124 37.3141 14.0201 37.3718 13.5065 38.5029C13.0745 39.4493 13.0862 40.742 13.0862 41.3652C13.0862 41.9885 13.0979 43.108 13.5065 44.0083C14.0201 45.1393 15.0124 45.197 15.6661 45.047L15.6778 44.3891C13.8684 44.9316 13.9968 41.8153 13.9968 41.3537Z" fill="white" fill-opacity="0.5"/>
<path d="M17.3588 41.3537C17.3588 40.892 17.5689 37.5449 15.6777 38.122L15.6894 37.4642C16.3431 37.3141 17.3354 37.3718 17.8491 38.5029C18.281 39.4493 18.2693 40.742 18.2693 41.3652C18.2693 41.9885 18.2576 43.108 17.8491 44.0083C17.3354 45.1393 16.3431 45.197 15.6894 45.047L15.6777 44.3891C17.4872 44.9316 17.3588 41.8153 17.3588 41.3537Z" fill="white" fill-opacity="0.5"/>
<path d="M25.9973 33.5746L24.83 24.676L23.9194 24.5952L22.2034 33.5746H22.9505L24.1762 26.3726L24.258 26.3611L25.0634 33.5746H25.9973Z" fill="white" fill-opacity="0.5"/>
<path d="M35.9083 12.615L35.7216 17.7626L33.5619 16.2391L33.6553 12.6035H32.7564L32.5229 21.4213H33.4102L33.5269 17.2201L35.6515 18.7667L35.5465 21.4213H36.4453L36.7839 12.6265L35.9083 12.615Z" fill="white" fill-opacity="0.5"/>
<path d="M27.1764 36.7255L26.9896 41.873L24.8417 40.3495L24.9234 36.7139H24.0245L23.791 45.5317H24.6782L24.795 41.3306L26.9196 42.8772L26.8145 45.5317H27.7134L28.0519 36.737L27.1764 36.7255Z" fill="white" fill-opacity="0.5"/>
<path d="M46.9635 24.8145L46.7767 29.9736L44.6288 28.4501L44.7105 24.8145H43.8233L43.5781 33.6208H44.4653L44.5821 29.4312L46.7184 30.9662L46.6133 33.6208H47.5005L47.8507 24.8376L46.9635 24.8145Z" fill="white" fill-opacity="0.5"/>
<path d="M59.1275 12.6266L56.6293 19.4246L56.8978 12.6266H56.0339L55.7188 21.3636H56.6176L59.1975 14.1732L59.0224 21.3636H59.8746L60.003 12.6266H59.1275Z" fill="white" fill-opacity="0.5"/>
<path d="M58.6022 10.9184C58.5788 11.3108 58.5088 11.6917 58.0652 11.6917C57.5399 11.6917 57.4582 11.3224 57.4465 10.9069L56.8628 10.9761C56.9212 11.7725 57.248 12.3149 58.0652 12.3149C58.9991 12.3149 59.1859 11.6109 59.2209 10.9877L58.6022 10.9184Z" fill="white" fill-opacity="0.5"/>
<path d="M57.4466 24.8261L54.9484 31.6241L55.2286 24.8261H54.353L54.0378 33.5631H54.9484L57.5166 26.3727L57.3415 33.5516L58.1937 33.5631L58.3221 24.8261H57.4466Z" fill="white" fill-opacity="0.5"/>
<path d="M56.933 23.1064C56.9096 23.4988 56.8396 23.8797 56.396 23.8797C55.8707 23.8797 55.789 23.5103 55.7773 23.0948L55.1936 23.1641C55.252 23.9605 55.5788 24.5029 56.396 24.5029C57.3299 24.5029 57.5167 23.7989 57.5517 23.1756L56.933 23.1064Z" fill="white" fill-opacity="0.5"/>
<path d="M49.5667 40.0033L39.3755 39.8071L39.1304 36.8524L50.2088 37.441L49.5667 40.0033Z" fill="white" fill-opacity="0.5"/>
<path d="M47.3021 44.8161L37.1226 44.6199L36.8774 41.6768L47.9442 42.2539L47.3021 44.8161Z" fill="white" fill-opacity="0.5"/>
</svg>
