<svg width="74" height="56" viewBox="0 0 74 56" fill="none" xmlns="http://www.w3.org/2000/svg">
<path d="M11.884 7.57147C9.64262 7.96388 6.54907 10.203 6.54907 14.3118C6.54907 20.6828 11.7322 22.5294 14.9425 22.841C19.6937 23.2912 22.7289 20.0133 22.7289 16.2392C22.7172 7.04055 14.1253 7.19059 11.884 7.57147ZM14.5456 19.4132C11.8606 19.2285 10.343 18.1321 10.343 14.6927C10.343 12.9383 10.9618 11.7957 13.1914 11.2648C15.4211 10.7339 19.0517 11.5302 19.0517 15.616C19.04 17.3357 17.7325 19.6325 14.5456 19.4132Z" fill="#FFCC2D"/>
<path d="M28.7524 45.6355L30.9821 36.8984L31.7993 36.9561C31.7993 36.9561 33.2702 45.6355 33.2585 45.6355H32.383C32.383 45.6355 31.1923 38.5258 31.1923 38.5373H31.1339C31.1339 38.5373 30.1533 43.581 29.4412 45.6355H28.7524Z" fill="#020416"/>
<path d="M32.92 44.793L32.815 45.6355H29.0793V44.793H32.92Z" fill="#020416"/>
<path d="M43.041 17.9588L43.2862 12.4072H42.399L42.0254 21.3751L43.3912 21.3635C43.3912 21.3635 45.2357 21.2019 45.2357 19.6092C45.224 18.455 43.8465 18.0049 43.041 17.9588ZM42.9243 20.7057L43.0293 18.6282C43.4846 18.6051 44.3368 18.6166 44.3368 19.7015C44.3368 20.4748 43.3445 20.7287 42.9243 20.7057Z" fill="#020416"/>
<path d="M40.2862 14.7386L41.1384 14.6347C41.1384 14.6347 41.4652 12.2802 39.7842 12.338C38.1032 12.3957 37.5779 14.6347 37.5895 16.9662C37.6012 19.2976 37.8113 21.5366 39.5741 21.4905C41.3368 21.4443 40.9633 19.1591 40.9633 19.1591L40.0761 19.2514C40.0761 19.2514 40.4379 20.6018 39.6325 20.6018C38.6752 20.6018 38.3834 19.413 38.4651 17.0239C38.5468 14.6001 38.6519 13.192 39.7842 13.192C40.4146 13.192 40.2862 14.7386 40.2862 14.7386Z" fill="#020416"/>
<path d="M21.0828 19.1132C20.6625 17.9359 19.5418 17.9244 18.8881 18.086L18.9582 16.2393C21.3863 15.9738 21.5381 12.6152 21.5381 12.6152H20.6508C20.6508 15.1544 19.3901 15.5468 18.9932 15.5468L19.0749 12.6152H18.1643L17.9192 21.3753H18.8414L18.8998 18.7323C20.8143 18.1091 20.6042 21.3522 20.6042 21.3522H21.468C21.468 21.3753 21.6081 20.579 21.0828 19.1132Z" fill="#020416"/>
<path d="M16.5767 31.3241C16.1564 30.1469 15.0357 30.1353 14.382 30.2969L14.4521 28.4502C17.0436 28.1617 17.137 24.6992 17.137 24.6992H16.2498C16.2498 27.2384 14.884 27.7578 14.4871 27.7578L14.5688 24.7108H13.6582L13.4131 33.5978H14.3353L14.3937 30.9548C16.3082 30.3315 16.0981 33.5747 16.0981 33.5747H16.9619C16.9502 33.5863 17.0903 32.7899 16.5767 31.3241Z" fill="#020416"/>
<path d="M48.9715 19.1132C48.5512 17.9359 47.4305 17.9244 46.7768 18.086L46.8468 16.2393C49.275 15.9738 49.4267 12.6152 49.4267 12.6152H48.5395C48.5395 15.1544 47.2788 15.5468 46.8818 15.5468L46.9636 12.6152H46.053L45.8079 21.3753H46.7301L46.7885 18.7323C48.703 18.1091 48.4928 21.3522 48.4928 21.3522H49.3567C49.3567 21.3753 49.4968 20.579 48.9715 19.1132Z" fill="#020416"/>
<path d="M22.9739 21.4212H22.145L22.4018 12.7534H23.2774L22.9739 21.4212Z" fill="#020416"/>
<path d="M22.9855 16.2968C22.9855 16.2968 25.7288 16.343 25.7288 14.3347C25.7288 13.1113 24.2346 12.7882 23.254 12.6958C22.7637 12.6612 22.4018 12.6727 22.4018 12.6727L22.3901 13.3537L23.219 13.3306C23.219 13.3306 24.865 13.0998 24.865 14.3578C24.865 15.108 24.0828 15.6043 23.0205 15.6043L22.9855 16.2968Z" fill="#020416"/>
<path d="M40.3562 33.5519H39.5273L39.7842 24.8841L40.648 24.8726L40.3562 33.5519Z" fill="#020416"/>
<path d="M40.3678 28.4272C40.3678 28.4272 43.1112 28.4734 43.1112 26.4651C43.1112 25.2417 41.6169 24.9185 40.6363 24.8262C40.146 24.7916 39.7841 24.8031 39.7841 24.8031L39.7725 25.4841L40.6013 25.461C40.6013 25.461 42.2473 25.2302 42.2473 26.4882C42.2473 27.2384 41.4652 27.7347 40.4028 27.7347L40.3678 28.4272Z" fill="#020416"/>
<path d="M30.947 21.3638H30.0598L30.41 12.6152L31.3089 12.6268L30.947 21.3638Z" fill="#020416"/>
<path d="M31.7758 10.2259C31.4256 10.3182 31.1221 10.5491 31.1221 11.0569C31.1221 11.8417 31.7641 12.0495 32.1494 12.1072C32.2894 12.1303 32.3245 12.1187 32.3245 12.1187C32.3945 12.1072 32.4529 12.1072 32.5229 12.0841C32.8381 11.9802 33.0949 11.7609 33.0949 11.2993C33.1066 10.1567 31.7758 10.2259 31.7758 10.2259ZM32.2778 11.4839C32.2661 11.4839 32.2544 11.4955 32.2428 11.4955C32.2077 11.507 32.1727 11.507 32.1377 11.507C31.9042 11.4955 31.7408 11.4262 31.7408 11.1146C31.7408 10.9646 31.8342 10.8492 31.9626 10.8261C32.2778 10.8261 32.4996 10.8607 32.4996 11.2185C32.4879 11.3685 32.3828 11.4493 32.2778 11.4839Z" fill="#020416"/>
<path d="M29.2426 10.2259C28.8924 10.3182 28.5889 10.5491 28.5889 11.0569C28.5889 11.8417 29.2309 12.0495 29.6162 12.1072C29.7562 12.1303 29.7913 12.1187 29.7913 12.1187C29.8613 12.1072 29.9197 12.1072 29.9897 12.0841C30.3049 11.9802 30.5617 11.7609 30.5617 11.2993C30.5734 10.1567 29.2426 10.2259 29.2426 10.2259ZM29.7446 11.4839C29.7329 11.4839 29.7212 11.4955 29.7095 11.4955C29.6745 11.507 29.6395 11.507 29.6045 11.507C29.371 11.4955 29.2076 11.4262 29.2076 11.1146C29.2076 10.9646 29.301 10.8492 29.4294 10.8261C29.7446 10.8261 29.9664 10.8607 29.9664 11.2185C29.9664 11.3685 29.8613 11.4493 29.7446 11.4839Z" fill="#020416"/>
<path d="M14.7791 19.1709C14.2771 19.2978 13.8335 19.6325 13.8335 20.3597C13.8335 21.4792 14.7557 21.7793 15.3161 21.8601C15.5145 21.8832 15.5612 21.8832 15.5729 21.8832C15.6663 21.8601 15.7597 21.8601 15.8531 21.837C16.2967 21.687 16.6819 21.3638 16.6819 20.7059C16.6819 19.0785 14.7791 19.1709 14.7791 19.1709ZM15.5262 21.0637C15.5028 21.0752 15.4912 21.0752 15.4678 21.0868C15.4095 21.0983 15.3394 21.0983 15.2927 21.0983C14.9075 21.0752 14.639 20.9598 14.639 20.452C14.639 20.1981 14.8024 20.0134 15.0009 19.9788C15.5145 19.9788 15.8881 20.0365 15.8881 20.6251C15.8881 20.8675 15.713 20.9945 15.5262 21.0637Z" fill="#020416"/>
<path d="M16.2265 12.6152L16.2732 14.7504C16.2732 15.4083 16.2615 15.8469 16.2149 16.3316C16.1448 17.1742 16.0397 18.1552 15.2693 18.1552C14.4988 18.1552 14.3937 16.9318 14.312 16.3316C14.277 16.0893 14.2303 15.7315 14.2303 14.7274C14.2303 13.7232 14.312 12.6152 14.312 12.6152H13.4365C13.4365 12.6152 13.3665 13.9656 13.3665 14.7158C13.3665 15.4545 13.4131 15.9738 13.4365 16.3201C13.5649 17.9244 13.9268 18.8131 15.281 18.8131C16.5184 18.8131 16.9736 17.9475 17.1137 16.3086C17.1604 15.7546 17.1604 15.3506 17.1604 14.7389L17.1021 12.6268L16.2265 12.6152Z" fill="#020416"/>
<path d="M19.5769 31.2661C19.0749 31.3931 18.6313 31.7278 18.6313 32.4549C18.6313 33.5744 19.5536 33.8745 20.1139 33.9553C20.3124 33.9784 20.3591 33.9784 20.3707 33.9784C20.4641 33.9553 20.5575 33.9553 20.6509 33.9322C21.0945 33.7822 21.4797 33.459 21.4797 32.8011C21.4914 31.1738 19.5769 31.2661 19.5769 31.2661ZM20.324 33.1589C20.3007 33.1705 20.289 33.1705 20.2657 33.182C20.2073 33.1935 20.1373 33.1935 20.0906 33.1935C19.7053 33.1705 19.4368 33.055 19.4368 32.5472C19.4368 32.2933 19.6003 32.1086 19.7987 32.074C20.3124 32.074 20.6859 32.1317 20.6859 32.7203C20.6859 32.9627 20.5225 33.0897 20.324 33.1589Z" fill="#020416"/>
<path d="M21.0244 24.7104L21.0711 26.8457C21.0711 27.5035 21.0594 27.9421 21.0127 28.4269C20.9427 29.2694 20.8376 30.2504 20.0671 30.2504C19.2967 30.2504 19.1916 29.027 19.1099 28.4269C19.0749 28.1845 19.0282 27.8267 19.0282 26.8226C19.0282 25.83 19.1099 24.7104 19.1099 24.7104H18.2343C18.2343 24.7104 18.1643 26.0608 18.1643 26.811C18.1643 27.5497 18.211 28.0691 18.2343 28.4153C18.3628 30.0196 18.7246 30.9083 20.0788 30.9083C21.3162 30.9083 21.7715 30.0427 21.9116 28.4038C21.9583 27.8498 21.9583 27.4458 21.9583 26.8341L21.8999 24.722L21.0244 24.7104Z" fill="#020416"/>
<path d="M36.2119 31.3354C35.71 31.4624 35.2664 31.7971 35.2664 32.5242C35.2664 33.6438 36.1886 33.9438 36.7489 34.0246C36.9474 34.0477 36.9941 34.0477 37.0057 34.0477C37.0991 34.0246 37.1925 34.0246 37.2859 34.0015C37.7295 33.8515 38.1148 33.5283 38.1148 32.8705C38.1264 31.2431 36.2119 31.3354 36.2119 31.3354ZM36.9707 33.2167C36.9474 33.2283 36.9357 33.2283 36.9124 33.2398C36.854 33.2513 36.7839 33.2513 36.7373 33.2513C36.352 33.2283 36.0835 33.1128 36.0835 32.605C36.0835 32.3511 36.247 32.1664 36.4454 32.1318C36.9591 32.1318 37.3326 32.1895 37.3326 32.7781C37.3209 33.0321 37.1575 33.1475 36.9707 33.2167Z" fill="#020416"/>
<path d="M37.6711 24.7798L37.7178 26.915C37.7178 27.5729 37.7061 28.0114 37.6594 28.4962C37.5894 29.3387 37.4843 30.3198 36.7139 30.3198C35.9434 30.3198 35.8383 29.0964 35.7566 28.4962C35.7216 28.2538 35.6749 27.896 35.6749 26.8919C35.6749 25.8878 35.7566 24.7798 35.7566 24.7798H34.8811C34.8811 24.7798 34.811 26.1302 34.811 26.8804C34.811 27.619 34.8577 28.1384 34.8811 28.4846C35.0095 30.0889 35.3714 30.9776 36.7255 30.9776C37.963 30.9776 38.4182 30.112 38.5583 28.4731C38.605 27.9191 38.605 27.5152 38.605 26.9034L38.5466 24.7913L37.6711 24.7798Z" fill="#020416"/>
<path d="M53.8626 12.6265L51.3644 19.4245L51.6329 12.6265H50.7574L50.4539 21.3635H51.3527L53.921 14.173L53.7459 21.3635H54.6097L54.7381 12.6265H53.8626Z" fill="#020416"/>
<path d="M52.2166 24.826L49.7184 31.6125L49.9869 24.8145H49.1231L48.8079 33.563H49.7067L52.2866 26.3726L52.1115 33.5515L52.9637 33.563L53.0921 24.826H52.2166Z" fill="#020416"/>
<path d="M28.0521 24.7916L27.2232 24.7339L26.8613 33.4017L27.7252 33.4709L28.0521 24.7916Z" fill="#020416"/>
<path d="M27.6901 29.9043C27.6901 29.9043 30.4335 30.0543 30.2817 32.051C30.1883 33.2745 28.6824 33.4937 27.7018 33.5053C27.2115 33.5168 26.8496 33.4707 26.8496 33.4707L26.8846 32.7897L27.7135 32.8705C27.7135 32.8705 29.3361 33.2167 29.4295 31.9587C29.4879 31.2085 28.7291 30.6545 27.6784 30.5853L27.6901 29.9043Z" fill="#020416"/>
<path d="M32.3013 33.5053H31.4958L31.706 24.7798H32.5231L32.3013 33.5053Z" fill="#020416"/>
<path d="M30.1767 24.7797L33.9006 24.7104V25.3799L30.165 25.4376L30.1767 24.7797Z" fill="#020416"/>
<path d="M22.9154 40.9728C22.9154 40.3957 22.8921 39.9571 22.8571 39.6224V39.5301C22.8571 39.4839 22.8454 39.4262 22.8454 39.3801C22.717 37.7873 22.3551 36.9102 21.0243 36.9102C19.7986 36.9102 19.3433 37.7642 19.2032 39.3916C19.1565 39.9456 19.1565 40.338 19.1565 40.9497V41.1575C19.1565 41.3191 19.1565 41.4691 19.1565 41.5961C19.1565 42.1731 19.1798 42.6117 19.2149 42.9464V43.0388C19.2149 43.0849 19.2265 43.1426 19.2265 43.1888C19.3549 44.7816 19.7168 45.6587 21.0476 45.6587C22.2734 45.6587 22.7287 44.8046 22.8688 43.1773C22.9154 42.6233 22.9154 42.2309 22.9154 41.6191V41.4114C22.9154 41.2498 22.9154 41.0998 22.9154 40.9728ZM21.036 44.7931C20.2772 44.7931 20.1604 43.8005 20.0904 43.2003C20.0904 43.1773 20.032 42.1962 20.032 41.2267C20.032 40.3034 20.0787 39.4032 20.0787 39.3801C20.1488 38.5491 20.2538 37.7873 21.0126 37.7873C21.7714 37.7873 21.8882 38.7799 21.9582 39.3801C21.9582 39.4032 22.0166 40.338 22.0166 41.2729C22.0166 42.2193 21.9699 43.1773 21.9699 43.2003C21.8998 44.0313 21.7948 44.7931 21.036 44.7931Z" fill="#020416"/>
<path d="M26.3708 17.9238L28.297 17.7622L28.4021 18.4085L26.3008 18.5009L26.3708 17.9238Z" fill="#020416"/>
<path d="M29.2309 21.4211L28.0519 12.6379L27.1413 12.5571L25.4253 21.4096H26.1724L27.4332 14.4153L27.5149 14.4038L28.2854 21.3865L29.2309 21.4211Z" fill="#020416"/>
<path d="M16.028 45.682H15.1758L15.2925 36.9219H16.1797L16.028 45.682Z" fill="#020416"/>
<path d="M13.9968 41.354C13.9968 40.8923 13.7866 37.5453 15.6778 38.1223L15.6661 37.4645C15.0124 37.3144 14.0201 37.3721 13.5065 38.5032C13.0745 39.4496 13.0862 40.7423 13.0862 41.3655C13.0862 41.9888 13.0979 43.1083 13.5065 44.0086C14.0201 45.1396 15.0124 45.1974 15.6661 45.0473L15.6778 44.3894C13.8684 44.9319 13.9968 41.8157 13.9968 41.354Z" fill="#020416"/>
<path d="M17.3588 41.354C17.3588 40.8923 17.5689 37.5453 15.6777 38.1223L15.6894 37.4645C16.3431 37.3144 17.3354 37.3721 17.8491 38.5032C18.281 39.4496 18.2693 40.7423 18.2693 41.3655C18.2693 41.9888 18.2576 43.1083 17.8491 44.0086C17.3354 45.1396 16.3431 45.1974 15.6894 45.0473L15.6777 44.3894C17.4872 44.9319 17.3588 41.8157 17.3588 41.354Z" fill="#020416"/>
<path d="M25.9973 33.5746L24.83 24.676L23.9194 24.5952L22.2034 33.5746H22.9505L24.1762 26.3726L24.258 26.3611L25.0634 33.5746H25.9973Z" fill="#020416"/>
<path d="M35.9083 12.6151L35.7216 17.7626L33.5619 16.2391L33.6553 12.6035H32.7564L32.5229 21.4213H33.4102L33.5269 17.2202L35.6515 18.7667L35.5465 21.4213H36.4453L36.7839 12.6266L35.9083 12.6151Z" fill="#020416"/>
<path d="M27.1764 36.7254L26.9896 41.873L24.8417 40.3495L24.9234 36.7139H24.0245L23.791 45.5317H24.6782L24.795 41.3305L26.9196 42.8771L26.8145 45.5317H27.7134L28.0519 36.7369L27.1764 36.7254Z" fill="#020416"/>
<path d="M46.9635 24.8145L46.7767 29.9736L44.6288 28.4501L44.7105 24.8145H43.8233L43.5781 33.6207H44.4653L44.5821 29.4311L46.7184 30.9661L46.6133 33.6207H47.5005L47.8507 24.8375L46.9635 24.8145Z" fill="#020416"/>
<path d="M59.1275 12.6265L56.6293 19.4245L56.8978 12.6265H56.0339L55.7188 21.3635H56.6176L59.1975 14.173L59.0224 21.3635H59.8746L60.003 12.6265H59.1275Z" fill="#020416"/>
<path d="M58.6022 10.9183C58.5788 11.3107 58.5088 11.6916 58.0652 11.6916C57.5399 11.6916 57.4582 11.3222 57.4465 10.9067L56.8628 10.976C56.9212 11.7724 57.248 12.3148 58.0652 12.3148C58.9991 12.3148 59.1859 11.6108 59.2209 10.9875L58.6022 10.9183Z" fill="#020416"/>
<path d="M57.4466 24.8262L54.9484 31.6242L55.2286 24.8262H54.353L54.0378 33.5632H54.9484L57.5166 26.3727L57.3415 33.5516L58.1937 33.5632L58.3221 24.8262H57.4466Z" fill="#020416"/>
<path d="M56.933 23.1063C56.9096 23.4987 56.8396 23.8796 56.396 23.8796C55.8707 23.8796 55.789 23.5102 55.7773 23.0947L55.1936 23.164C55.252 23.9603 55.5788 24.5028 56.396 24.5028C57.3299 24.5028 57.5167 23.7988 57.5517 23.1755L56.933 23.1063Z" fill="#020416"/>
<path d="M49.5667 40.0034L39.3755 39.8072L39.1304 36.8525L50.2088 37.4412L49.5667 40.0034Z" fill="#A3D2D9"/>
<path d="M47.3021 44.8161L37.1226 44.6199L36.8774 41.6768L47.9442 42.2538L47.3021 44.8161Z" fill="#A3D2D9"/>
</svg>
