<svg width="110" height="29" viewBox="0 0 110 29" fill="none" xmlns="http://www.w3.org/2000/svg">
<g clip-path="url(#clip0_583_8055)">
<path d="M19.3335 16.3945C19.3327 16.3943 9.59195 14.2548 9.59195 14.2548C6.68857 13.6171 4.86725 10.8155 5.5241 7.99729C6.18132 5.17907 9.06772 3.41167 11.9711 4.0492C14.8747 4.68697 16.6958 7.48847 16.0389 10.3065C15.7098 11.7174 14.8218 12.864 13.6527 13.5782C13.6525 13.5782 13.6497 13.5806 13.6486 13.5811C13.6142 13.6051 13.5919 13.6441 13.5919 13.6879C13.5919 13.7494 13.6356 13.8011 13.6947 13.8148C13.6949 13.815 18.028 14.7661 18.0288 14.7661C18.1319 14.7888 18.2389 14.7502 18.3023 14.6689C18.3026 14.6682 18.3025 14.6687 18.3025 14.6687C19.4962 13.1356 20.2133 11.2226 20.2133 9.15343C20.2133 4.28061 16.2909 0.298409 11.3436 0.0155697C11.2995 0.0132027 11.0314 0.0030365 10.9408 0.00178337C8.7503 -0.0315933 6.52936 0.578041 4.59802 1.89085C-0.279302 5.20553 -1.46431 11.7299 1.9504 16.4637L10.6168 28.4769C10.6538 28.5259 10.7134 28.5576 10.7803 28.5576C10.8477 28.5576 10.9075 28.5253 10.9443 28.476C10.9443 28.476 19.4545 16.6963 19.4553 16.6953C19.477 16.6641 19.4899 16.6262 19.4899 16.5856C19.4899 16.4924 19.4232 16.4144 19.3335 16.3945Z" fill="#FABC26" fill-opacity="0.8"/>
<path d="M27.6716 5.62487C27.7759 5.62487 27.845 5.65838 27.8796 5.72564L30.7693 10.512H30.9075L33.3648 5.79258C33.4165 5.67491 33.5206 5.62487 33.659 5.62487H35.4239C35.5798 5.62487 35.666 5.77606 35.5967 5.89341L30.5094 14.6271C30.4577 14.7277 30.354 14.7783 30.2153 14.7783H28.485C28.2946 14.7783 28.2775 14.6606 28.3468 14.5263L29.7136 12.2588L25.63 5.84318C25.5605 5.72564 25.6127 5.62487 25.7337 5.62487H27.6716Z" fill="#020416" fill-opacity="0.8"/>
<path d="M38.635 5.62487C38.7909 5.62487 38.8774 5.70861 38.8774 5.85985V9.45179L42.7711 5.75902C42.8748 5.67491 43.0304 5.62487 43.2208 5.62487H45.3318C45.4876 5.62487 45.5397 5.75902 45.4183 5.8767L41.2825 9.63891L45.678 14.5263C45.7991 14.6436 45.7301 14.7783 45.5743 14.7783H43.4978C43.3075 14.7783 43.1692 14.7277 43.0649 14.61L39.7721 10.84L38.8774 11.6477V14.543C38.8774 14.6942 38.7909 14.7783 38.635 14.7783H37.1125C36.9566 14.7783 36.8704 14.6942 36.8704 14.543V5.85985C36.8704 5.70861 36.9566 5.62487 37.1125 5.62487H38.635Z" fill="#020416" fill-opacity="0.8"/>
<path d="M51.416 10.4955C52.4715 10.4955 53.077 9.85741 53.077 8.9673C53.077 8.09381 52.4715 7.47257 51.416 7.47257H48.9066V10.4955H51.416ZM51.416 5.62487C53.5094 5.62487 55.0838 7.08599 55.0838 8.9673C55.0838 10.9155 53.5094 12.3431 51.416 12.3431H48.9066V14.5432C48.9066 14.6942 48.82 14.7783 48.6646 14.7783H47.1415C46.9859 14.7783 46.8992 14.6942 46.8992 14.5432V5.86003C46.8992 5.70879 46.9859 5.62487 47.1415 5.62487H51.416Z" fill="#020416" fill-opacity="0.8"/>
<path d="M64.5422 5.62487C64.6976 5.62487 64.7847 5.70861 64.7847 5.85985V14.543C64.7847 14.6942 64.6976 14.7783 64.5422 14.7783H63.0189C62.864 14.7783 62.7769 14.6942 62.7769 14.543V7.45535H58.5893V14.543C58.5893 14.6942 58.5027 14.7783 58.3473 14.7783H56.8245C56.6686 14.7783 56.582 14.6942 56.582 14.543V5.85985C56.582 5.70861 56.6686 5.62487 56.8245 5.62487H64.5422Z" fill="#020416" fill-opacity="0.8"/>
<path d="M68.596 10.2098C68.596 11.8726 69.807 13.0815 71.5373 13.0815C73.2509 13.0815 74.4624 11.8726 74.4624 10.2098C74.4624 8.51348 73.2509 7.32109 71.5373 7.32109C69.807 7.32109 68.596 8.51348 68.596 10.2098ZM71.5373 5.49018C74.2543 5.49018 76.4868 7.52251 76.4868 10.2098C76.4868 12.9138 74.2543 14.9126 71.5373 14.9126C68.8036 14.9126 66.5715 12.9138 66.5715 10.2098C66.5715 7.52251 68.8036 5.49018 71.5373 5.49018Z" fill="#020416" fill-opacity="0.8"/>
<path d="M83.2055 12.9476V5.85966C83.2055 5.70879 83.2916 5.62487 83.448 5.62487H84.9359C85.0918 5.62487 85.1783 5.70879 85.1783 5.85966V12.9476H88.1373V5.85966C88.1373 5.70879 88.2234 5.62487 88.3793 5.62487H89.8677C90.0236 5.62487 90.1097 5.70879 90.1097 5.85966V14.543C90.1097 14.6942 90.0236 14.7783 89.8677 14.7783H78.5162C78.3952 14.7783 78.2737 14.6942 78.2737 14.543V5.85966C78.2737 5.70879 78.3598 5.62487 78.5162 5.62487H80.004C80.1599 5.62487 80.2465 5.70879 80.2465 5.85966V12.9476H83.2055Z" fill="#020416" fill-opacity="0.8"/>
<path d="M99.7256 5.62487C99.8806 5.62487 99.9676 5.70861 99.9676 5.85985V7.23704C99.9676 7.38828 99.8806 7.47206 99.7256 7.47206H96.7145V14.543C96.7145 14.6942 96.6274 14.7783 96.472 14.7783H94.9492C94.7938 14.7783 94.7072 14.6942 94.7072 14.543V7.47206H91.6961C91.5407 7.47206 91.4536 7.38828 91.4536 7.23704V5.85985C91.4536 5.70861 91.5407 5.62487 91.6961 5.62487H99.7256Z" fill="#020416" fill-opacity="0.8"/>
<path d="M103.149 11.2011H106.437L104.915 7.43906H104.724L103.149 11.2011ZM107.13 12.9645H102.423L101.765 14.5767C101.714 14.7112 101.61 14.7783 101.471 14.7783H99.7581C99.5855 14.7783 99.5333 14.6942 99.5855 14.5432L103.669 5.75939C103.703 5.67528 103.773 5.62487 103.894 5.62487H105.866C105.987 5.62487 106.057 5.67528 106.091 5.75939L109.985 14.5094C110.037 14.6442 109.95 14.7783 109.794 14.7783H108.151C107.978 14.7783 107.856 14.6942 107.787 14.5432L107.13 12.9645Z" fill="#020416" fill-opacity="0.8"/>
<path d="M26.9622 22.626V18.7062H29.6191V19.1577H27.4959V22.626H26.9622Z" fill="#020416" fill-opacity="0.8"/>
<path d="M30.9278 20.6608C30.9278 21.6408 31.4784 22.2739 32.3357 22.2739C33.1816 22.2739 33.7322 21.635 33.7322 20.6608C33.7322 19.6919 33.1816 19.0643 32.3243 19.0643C31.3706 19.0643 30.9278 19.8239 30.9278 20.6608ZM34.2661 20.6332C34.2661 21.7841 33.6132 22.7197 32.3301 22.7197C31.0358 22.7197 30.3943 21.7618 30.3943 20.6221C30.3943 19.4003 31.1492 18.6128 32.3243 18.6128C33.579 18.6128 34.2661 19.466 34.2661 20.6332Z" fill="#020416" fill-opacity="0.8"/>
<path d="M38.444 22.6263H37.9105V19.158H36.4174L36.338 21.3655C36.3096 22.153 36.0142 22.709 35.4013 22.709C35.2875 22.709 35.1173 22.6704 35.0151 22.6317V22.1913C35.0891 22.2355 35.2423 22.2466 35.3045 22.2466C35.5941 22.2466 35.8045 22.0923 35.8327 21.0957L35.9065 18.7065H38.444V22.6263Z" fill="#020416" fill-opacity="0.8"/>
<path d="M40.2368 20.6608C40.2368 21.6408 40.7874 22.2739 41.6447 22.2739C42.4905 22.2739 43.0412 21.635 43.0412 20.6608C43.0412 19.6919 42.4905 19.0643 41.6333 19.0643C40.6796 19.0643 40.2368 19.8239 40.2368 20.6608ZM43.5747 20.6332C43.5747 21.7841 42.9222 22.7197 41.6391 22.7197C40.3446 22.7197 39.7029 21.7618 39.7029 20.6221C39.7029 19.4003 40.4582 18.6128 41.6333 18.6128C42.888 18.6128 43.5747 19.466 43.5747 20.6332Z" fill="#020416" fill-opacity="0.8"/>
<path d="M45.3532 22.191H46.4207C46.9599 22.191 47.4878 22.1582 47.4878 21.47C47.4878 20.7873 46.8691 20.7927 46.3299 20.7927H45.3532V22.191ZM45.3532 20.3853H46.3127C46.7669 20.3853 47.312 20.3523 47.312 19.7633C47.312 19.174 46.8405 19.1466 46.3639 19.1466H45.3532V20.3853ZM46.5569 18.7062C47.2269 18.7062 47.8453 18.9651 47.8453 19.6861C47.8453 20.0714 47.6128 20.4019 47.2494 20.5283C47.749 20.6388 48.027 21.0018 48.027 21.5195C48.027 22.4223 47.2665 22.626 46.4945 22.626H44.8311V18.7062H46.5569Z" fill="#020416" fill-opacity="0.8"/>
<path d="M52.504 22.626H51.9702V20.7927H49.8357V22.626H49.302V18.7062H49.8357V20.341H51.9702V18.7062H52.504V22.626Z" fill="#020416" fill-opacity="0.8"/>
<path d="M55.4846 19.2016L54.7863 21.0131H56.1718L55.4846 19.2016ZM57.3751 22.626H56.7792L56.3306 21.4259H54.6333L54.1736 22.626H53.6055L55.1952 18.7062H55.7969L57.3751 22.626Z" fill="#020416" fill-opacity="0.8"/>
<path d="M63.9554 22.626H63.4216V19.1577H61.2872V22.626H60.7534V18.7062H63.9554V22.626Z" fill="#020416" fill-opacity="0.8"/>
<path d="M65.7532 20.6608C65.7532 21.6408 66.3037 22.2739 67.1607 22.2739C68.0068 22.2739 68.5573 21.635 68.5573 20.6608C68.5573 19.6919 68.0068 19.0643 67.1497 19.0643C66.1956 19.0643 65.7532 19.8239 65.7532 20.6608ZM69.091 20.6332C69.091 21.7841 68.4382 22.7197 67.1555 22.7197C65.8608 22.7197 65.2195 21.7618 65.2195 20.6221C65.2195 19.4003 65.9742 18.6128 67.1497 18.6128C68.4042 18.6128 69.091 19.466 69.091 20.6332Z" fill="#020416" fill-opacity="0.8"/>
<path d="M70.3474 18.7062H70.8812V22.1746H72.6751V18.7062H73.2084V22.1746H75.0023V18.7062H75.5361V22.626H70.3474V18.7062Z" fill="#020416" fill-opacity="0.8"/>
<path d="M79.9193 19.1577H78.5624V22.626H78.0287V19.1577H76.6719V18.7062H79.9193V19.1577Z" fill="#020416" fill-opacity="0.8"/>
<path d="M81.9858 19.2016L81.288 21.0131H82.673L81.9858 19.2016ZM83.8768 22.626H83.2804L82.8318 21.4259H81.1345L80.6749 22.626H80.1067L81.6964 18.7062H82.2981L83.8768 22.626Z" fill="#020416" fill-opacity="0.8"/>
<path d="M88.8331 20.2808L90.6041 22.626H89.9231L88.4582 20.633L87.7886 21.2499V22.626H87.2549V18.7062H87.7886V20.6496L89.838 18.7062H90.5362L88.8331 20.2808Z" fill="#020416" fill-opacity="0.8"/>
<path d="M92.2647 20.5835H93.292C93.809 20.5835 94.2064 20.4459 94.2064 19.868C94.2064 19.2402 93.7463 19.1521 93.2183 19.1521H92.2647V20.5835ZM93.3943 18.7062C94.1667 18.7062 94.7397 19.0199 94.7397 19.8348C94.7397 20.7213 94.1495 21.0185 93.3604 21.0185H92.2647V22.626H91.731V18.7062H93.3943Z" fill="#020416" fill-opacity="0.8"/>
<path d="M97.1013 19.2016L96.403 21.0131H97.788L97.1013 19.2016ZM98.9918 22.626H98.3959L97.9473 21.4259H96.25L95.7899 22.626H95.2222L96.8114 18.7062H97.4136L98.9918 22.626Z" fill="#020416" fill-opacity="0.8"/>
<path d="M101.164 18.3704H100.652V17.8144H101.164V18.3704ZM100.636 22.626H100.102V18.7062H100.636V22.626ZM100.09 18.3704H99.5796V17.8144H100.09V18.3704Z" fill="#020416" fill-opacity="0.8"/>
<path d="M105.314 22.626H104.781V20.7927H102.646V22.626H102.113V18.7062H102.646V20.341H104.781V18.7062H105.314V22.626Z" fill="#020416" fill-opacity="0.8"/>
<path d="M106.783 18.7062H107.317V22.0259H107.328L109.309 18.7062H109.985V22.626H109.451V19.2951H109.44L107.453 22.626H106.783V18.7062Z" fill="#020416" fill-opacity="0.8"/>
</g>
<defs>
<clipPath id="clip0_583_8055">
<rect width="110" height="28.5577" fill="white"/>
</clipPath>
</defs>
</svg>
