<svg width="110" height="29" viewBox="0 0 110 29" fill="none" xmlns="http://www.w3.org/2000/svg">
<g clip-path="url(#clip0_583_7721)">
<path d="M19.3335 16.3945C19.3327 16.3943 9.59195 14.2548 9.59195 14.2548C6.68857 13.6171 4.86725 10.8156 5.5241 7.99735C6.18132 5.17913 9.06772 3.41173 11.9711 4.04926C14.8747 4.68703 16.6958 7.48853 16.0389 10.3066C15.7098 11.7175 14.8218 12.864 13.6527 13.5783C13.6525 13.5783 13.6497 13.5806 13.6486 13.5812C13.6142 13.6051 13.5919 13.6441 13.5919 13.688C13.5919 13.7495 13.6356 13.8011 13.6947 13.8149C13.6949 13.8151 18.028 14.7662 18.0288 14.7662C18.1319 14.7889 18.2389 14.7502 18.3023 14.669C18.3026 14.6683 18.3025 14.6688 18.3025 14.6688C19.4962 13.1356 20.2133 11.2226 20.2133 9.15349C20.2133 4.28067 16.2909 0.29847 11.3436 0.0156307C11.2995 0.0132637 11.0314 0.00309753 10.9408 0.00184441C8.7503 -0.0315323 6.52936 0.578102 4.59802 1.89091C-0.279302 5.20559 -1.46431 11.73 1.9504 16.4638L10.6168 28.477C10.6538 28.5259 10.7134 28.5577 10.7803 28.5577C10.8477 28.5577 10.9075 28.5254 10.9443 28.4761C10.9443 28.4761 19.4545 16.6964 19.4553 16.6953C19.477 16.6641 19.4899 16.6263 19.4899 16.5856C19.4899 16.4924 19.4232 16.4144 19.3335 16.3945Z" fill="white" fill-opacity="0.5"/>
<path d="M27.6716 5.62505C27.7759 5.62505 27.845 5.65856 27.8796 5.72583L30.7693 10.5122H30.9075L33.3648 5.79276C33.4165 5.67509 33.5206 5.62505 33.659 5.62505H35.4239C35.5798 5.62505 35.666 5.77624 35.5967 5.89359L30.5094 14.6273C30.4577 14.7279 30.354 14.7785 30.2153 14.7785H28.485C28.2946 14.7785 28.2775 14.6608 28.3468 14.5264L29.7136 12.259L25.63 5.84336C25.5605 5.72583 25.6127 5.62505 25.7337 5.62505H27.6716Z" fill="white" fill-opacity="0.5"/>
<path d="M38.635 5.62505C38.7909 5.62505 38.8774 5.70879 38.8774 5.86003V9.45197L42.7711 5.7592C42.8748 5.67509 43.0304 5.62505 43.2208 5.62505H45.3318C45.4876 5.62505 45.5397 5.7592 45.4183 5.87688L41.2825 9.63909L45.678 14.5264C45.7991 14.6438 45.7301 14.7785 45.5743 14.7785H43.4978C43.3075 14.7785 43.1692 14.7279 43.0649 14.6102L39.7721 10.8402L38.8774 11.6479V14.5432C38.8774 14.6944 38.7909 14.7785 38.635 14.7785H37.1125C36.9566 14.7785 36.8704 14.6944 36.8704 14.5432V5.86003C36.8704 5.70879 36.9566 5.62505 37.1125 5.62505H38.635Z" fill="white" fill-opacity="0.5"/>
<path d="M51.416 10.4955C52.4715 10.4955 53.077 9.85741 53.077 8.9673C53.077 8.09381 52.4715 7.47257 51.416 7.47257H48.9066V10.4955H51.416ZM51.416 5.62487C53.5094 5.62487 55.0838 7.08599 55.0838 8.9673C55.0838 10.9155 53.5094 12.3431 51.416 12.3431H48.9066V14.5432C48.9066 14.6942 48.82 14.7783 48.6646 14.7783H47.1415C46.9859 14.7783 46.8992 14.6942 46.8992 14.5432V5.86003C46.8992 5.70879 46.9859 5.62487 47.1415 5.62487H51.416Z" fill="white" fill-opacity="0.5"/>
<path d="M64.5422 5.62505C64.6976 5.62505 64.7847 5.70879 64.7847 5.86003V14.5432C64.7847 14.6944 64.6976 14.7785 64.5422 14.7785H63.0189C62.864 14.7785 62.7769 14.6944 62.7769 14.5432V7.45554H58.5893V14.5432C58.5893 14.6944 58.5027 14.7785 58.3473 14.7785H56.8245C56.6686 14.7785 56.582 14.6944 56.582 14.5432V5.86003C56.582 5.70879 56.6686 5.62505 56.8245 5.62505H64.5422Z" fill="white" fill-opacity="0.5"/>
<path d="M68.596 10.2099C68.596 11.8727 69.807 13.0816 71.5373 13.0816C73.2509 13.0816 74.4624 11.8727 74.4624 10.2099C74.4624 8.51361 73.2509 7.32121 71.5373 7.32121C69.807 7.32121 68.596 8.51361 68.596 10.2099ZM71.5373 5.49031C74.2543 5.49031 76.4868 7.52263 76.4868 10.2099C76.4868 12.9139 74.2543 14.9127 71.5373 14.9127C68.8036 14.9127 66.5715 12.9139 66.5715 10.2099C66.5715 7.52263 68.8036 5.49031 71.5373 5.49031Z" fill="white" fill-opacity="0.5"/>
<path d="M83.2055 12.9478V5.85984C83.2055 5.70898 83.2916 5.62505 83.448 5.62505H84.9359C85.0918 5.62505 85.1783 5.70898 85.1783 5.85984V12.9478H88.1373V5.85984C88.1373 5.70898 88.2234 5.62505 88.3793 5.62505H89.8677C90.0236 5.62505 90.1097 5.70898 90.1097 5.85984V14.5432C90.1097 14.6944 90.0236 14.7785 89.8677 14.7785H78.5162C78.3952 14.7785 78.2737 14.6944 78.2737 14.5432V5.85984C78.2737 5.70898 78.3598 5.62505 78.5162 5.62505H80.004C80.1599 5.62505 80.2465 5.70898 80.2465 5.85984V12.9478H83.2055Z" fill="white" fill-opacity="0.5"/>
<path d="M99.7256 5.62505C99.8806 5.62505 99.9676 5.70879 99.9676 5.86003V7.23722C99.9676 7.38846 99.8806 7.47225 99.7256 7.47225H96.7145V14.5432C96.7145 14.6944 96.6274 14.7785 96.472 14.7785H94.9492C94.7938 14.7785 94.7072 14.6944 94.7072 14.5432V7.47225H91.6961C91.5407 7.47225 91.4536 7.38846 91.4536 7.23722V5.86003C91.4536 5.70879 91.5407 5.62505 91.6961 5.62505H99.7256Z" fill="white" fill-opacity="0.5"/>
<path d="M103.149 11.2011H106.437L104.915 7.43906H104.724L103.149 11.2011ZM107.13 12.9645H102.423L101.765 14.5767C101.714 14.7112 101.61 14.7783 101.471 14.7783H99.7581C99.5855 14.7783 99.5333 14.6942 99.5855 14.5432L103.669 5.75939C103.703 5.67528 103.773 5.62487 103.894 5.62487H105.866C105.987 5.62487 106.057 5.67528 106.091 5.75939L109.985 14.5094C110.037 14.6442 109.95 14.7783 109.794 14.7783H108.151C107.978 14.7783 107.856 14.6942 107.787 14.5432L107.13 12.9645Z" fill="white" fill-opacity="0.5"/>
<path d="M26.9622 22.6262V18.7064H29.6191V19.1579H27.4959V22.6262H26.9622Z" fill="white" fill-opacity="0.5"/>
<path d="M30.9278 20.6608C30.9278 21.6409 31.4784 22.2739 32.3357 22.2739C33.1816 22.2739 33.7322 21.6351 33.7322 20.6608C33.7322 19.692 33.1816 19.0644 32.3243 19.0644C31.3706 19.0644 30.9278 19.824 30.9278 20.6608ZM34.2661 20.6332C34.2661 21.7841 33.6132 22.7198 32.3301 22.7198C31.0358 22.7198 30.3943 21.7619 30.3943 20.6222C30.3943 19.4004 31.1492 18.6129 32.3243 18.6129C33.579 18.6129 34.2661 19.4661 34.2661 20.6332Z" fill="white" fill-opacity="0.5"/>
<path d="M38.444 22.6262H37.9105V19.158H36.4174L36.338 21.3654C36.3096 22.1529 36.0142 22.7089 35.4013 22.7089C35.2875 22.7089 35.1173 22.6703 35.0151 22.6317V22.1912C35.0891 22.2355 35.2423 22.2465 35.3045 22.2465C35.5941 22.2465 35.8045 22.0922 35.8327 21.0956L35.9065 18.7064H38.444V22.6262Z" fill="white" fill-opacity="0.5"/>
<path d="M40.2368 20.6608C40.2368 21.6409 40.7874 22.2739 41.6447 22.2739C42.4905 22.2739 43.0412 21.6351 43.0412 20.6608C43.0412 19.692 42.4905 19.0644 41.6333 19.0644C40.6796 19.0644 40.2368 19.824 40.2368 20.6608ZM43.5747 20.6332C43.5747 21.7841 42.9222 22.7198 41.6391 22.7198C40.3446 22.7198 39.7029 21.7619 39.7029 20.6222C39.7029 19.4004 40.4582 18.6129 41.6333 18.6129C42.888 18.6129 43.5747 19.4661 43.5747 20.6332Z" fill="white" fill-opacity="0.5"/>
<path d="M45.3532 22.1912H46.4207C46.9599 22.1912 47.4878 22.1584 47.4878 21.4702C47.4878 20.7875 46.8691 20.7929 46.3299 20.7929H45.3532V22.1912ZM45.3532 20.3855H46.3127C46.7669 20.3855 47.312 20.3525 47.312 19.7636C47.312 19.1742 46.8405 19.1469 46.3639 19.1469H45.3532V20.3855ZM46.5569 18.7064C47.2269 18.7064 47.8453 18.9653 47.8453 19.6863C47.8453 20.0716 47.6128 20.4022 47.2494 20.5286C47.749 20.639 48.027 21.002 48.027 21.5197C48.027 22.4226 47.2665 22.6262 46.4945 22.6262H44.8311V18.7064H46.5569Z" fill="white" fill-opacity="0.5"/>
<path d="M52.504 22.6262H51.9702V20.7929H49.8357V22.6262H49.302V18.7064H49.8357V20.3413H51.9702V18.7064H52.504V22.6262Z" fill="white" fill-opacity="0.5"/>
<path d="M55.4846 19.2018L54.7863 21.0133H56.1718L55.4846 19.2018ZM57.3751 22.6262H56.7792L56.3306 21.4262H54.6333L54.1736 22.6262H53.6055L55.1952 18.7064H55.7969L57.3751 22.6262Z" fill="white" fill-opacity="0.5"/>
<path d="M63.9554 22.6262H63.4216V19.1579H61.2872V22.6262H60.7534V18.7064H63.9554V22.6262Z" fill="white" fill-opacity="0.5"/>
<path d="M65.7532 20.6608C65.7532 21.6409 66.3037 22.2739 67.1607 22.2739C68.0068 22.2739 68.5573 21.6351 68.5573 20.6608C68.5573 19.692 68.0068 19.0644 67.1497 19.0644C66.1956 19.0644 65.7532 19.824 65.7532 20.6608ZM69.091 20.6332C69.091 21.7841 68.4382 22.7198 67.1555 22.7198C65.8608 22.7198 65.2195 21.7619 65.2195 20.6222C65.2195 19.4004 65.9742 18.6129 67.1497 18.6129C68.4042 18.6129 69.091 19.4661 69.091 20.6332Z" fill="white" fill-opacity="0.5"/>
<path d="M70.3474 18.7064H70.8812V22.1749H72.6751V18.7064H73.2084V22.1749H75.0023V18.7064H75.5361V22.6262H70.3474V18.7064Z" fill="white" fill-opacity="0.5"/>
<path d="M79.9193 19.1579H78.5624V22.6262H78.0287V19.1579H76.6719V18.7064H79.9193V19.1579Z" fill="white" fill-opacity="0.5"/>
<path d="M81.9858 19.2018L81.288 21.0133H82.673L81.9858 19.2018ZM83.8768 22.6262H83.2804L82.8318 21.4262H81.1345L80.6749 22.6262H80.1067L81.6964 18.7064H82.2981L83.8768 22.6262Z" fill="white" fill-opacity="0.5"/>
<path d="M88.8331 20.2811L90.6041 22.6262H89.9231L88.4582 20.6332L87.7886 21.2501V22.6262H87.2549V18.7064H87.7886V20.6499L89.838 18.7064H90.5362L88.8331 20.2811Z" fill="white" fill-opacity="0.5"/>
<path d="M92.2647 20.5837H93.292C93.809 20.5837 94.2064 20.4461 94.2064 19.8682C94.2064 19.2404 93.7463 19.1523 93.2183 19.1523H92.2647V20.5837ZM93.3943 18.7064C94.1667 18.7064 94.7397 19.0201 94.7397 19.835C94.7397 20.7215 94.1495 21.0187 93.3604 21.0187H92.2647V22.6262H91.731V18.7064H93.3943Z" fill="white" fill-opacity="0.5"/>
<path d="M97.1013 19.2018L96.403 21.0133H97.788L97.1013 19.2018ZM98.9918 22.6262H98.3959L97.9473 21.4262H96.25L95.7899 22.6262H95.2222L96.8114 18.7064H97.4136L98.9918 22.6262Z" fill="white" fill-opacity="0.5"/>
<path d="M101.164 18.3706H100.652V17.8146H101.164V18.3706ZM100.636 22.6262H100.102V18.7064H100.636V22.6262ZM100.09 18.3706H99.5796V17.8146H100.09V18.3706Z" fill="white" fill-opacity="0.5"/>
<path d="M105.314 22.6262H104.781V20.7929H102.646V22.6262H102.113V18.7064H102.646V20.3413H104.781V18.7064H105.314V22.6262Z" fill="white" fill-opacity="0.5"/>
<path d="M106.783 18.7064H107.317V22.0262H107.328L109.309 18.7064H109.985V22.6262H109.451V19.2954H109.44L107.453 22.6262H106.783V18.7064Z" fill="white" fill-opacity="0.5"/>
</g>
<defs>
<clipPath id="clip0_583_7721">
<rect width="110" height="28.5577" fill="white"/>
</clipPath>
</defs>
</svg>
