<svg width="80" height="29" viewBox="0 0 80 29" fill="none" xmlns="http://www.w3.org/2000/svg">
<g clip-path="url(#clip0_583_7752)">
<path d="M30.6826 7.13135C32.9855 7.13135 34.107 8.03142 34.107 9.25604C34.107 10.4807 32.9769 11.3807 30.6826 11.3807H28.4053L25.5717 17.387H31.0592C33.5248 17.387 34.5735 18.2524 34.5735 19.4684C34.5735 20.6844 33.5248 21.5541 31.0592 21.5541H23.5855L20.1611 28.7461H30.2502C38.1563 28.7461 42.0901 25.2843 42.0901 20.7536C42.1261 19.3743 41.802 18.0098 41.1505 16.7974C40.499 15.585 39.5431 14.5675 38.3789 13.8473C40.472 12.4452 41.8375 10.3855 41.8375 7.94487C41.8375 3.02909 37.6341 0 30.9651 0H20.8717L14.4509 13.5876L8.04732 0H0L10.3417 22.1643L7.27684 28.7461H15.1957L25.4176 7.13135H30.6826Z" fill="white" fill-opacity="0.6"/>
<path d="M44.7269 12.2549H71.5955L68.4622 5.55624C67.5458 3.86082 66.1915 2.44858 64.5436 1.47008C62.8958 0.491577 61.0161 -0.0164962 59.105 2.41928e-05H42.8691C44.7537 2.03048 45.8022 4.71055 45.8013 7.49486C45.7891 9.14155 45.4225 10.7658 44.7269 12.2549Z" fill="white" fill-opacity="0.6"/>
<path d="M44.9452 16.4912C45.6623 17.9728 46.0314 19.6018 46.0239 21.2512C46.0545 22.6561 45.7881 24.0514 45.2426 25.3439C44.6971 26.6363 43.885 27.7962 42.8606 28.746H79.2919L73.5774 16.4912H44.9452Z" fill="white" fill-opacity="0.6"/>
</g>
<defs>
<clipPath id="clip0_583_7752">
<rect width="79.1891" height="28.56" fill="white"/>
</clipPath>
</defs>
</svg>
